<?xml version="1.0" encoding="utf-8"?>
<!-- Generator: Adobe Illustrator 27.4.1, SVG Export Plug-In . SVG Version: 6.00 Build 0)  -->
<svg version="1.1" xmlns="http://www.w3.org/2000/svg" xmlns:xlink="http://www.w3.org/1999/xlink" x="0px" y="0px"
	 viewBox="0 0 200 200" style="enable-background:new 0 0 200 200;" xml:space="preserve">
<style type="text/css">
	.st0{fill:#5393FF;}
	.st1{fill:#009688;}
	.st2{fill:#2979FF;}
	.st3{fill:#A0C4F9;}
	.st4{fill:#FFC400;}
	.st5{fill:#33AB9F;}
	.st6{fill:#ABD29B;}
	.st7{fill:#A9B0B2;}
	.st8{fill:#C5C7C6;}
	.st9{fill:#8C9191;}
	.st10{fill:#FFFFFF;}
	.st11{fill:#3E453D;}
</style>
<g id="Layer_2">
	<path class="st0" d="M160.8,93.6 M163.6,150.1c0.3,0.4,0.5,0.7,0.8,1.1c3.6,3.1,7.3,6.3,10.9,9.4c0.5-1.7,0.9-3.4,1.9-4.8
		c-0.9,1.3-1.4,3-1.9,4.8c0.3,0.3,0.6,0.6,0.9,0.9c0.3,1.4,1.1,2.1,2.4,2.5c0.7,0.7,1.4,1.5,2.1,2.2c0.5-0.1,1-0.2,1.6-0.3
		c0,0,0,0,0,0c0.7,0,1.5,0.1,2.2,0.1c0.5-0.7,0.9-1.5,1.4-2.2c-0.1-0.4-0.1-0.8-0.2-1.1l0-0.1c0.3-0.4,0.6-0.8,0.9-1.2
		c0-0.4,0.1-0.8,0.1-1.1c-1-1.3-1.6-2.9-2.6-4.3c1,1.3,1.6,3,2.6,4.3c0.4-0.3,0.8-0.7,1.2-1c0.3-0.5,0.6-1,0.8-1.5
		c0.9-2.9,1.8-5.8,2.7-8.6c7.5-30,2.4-57.4-16.4-82c-1.1-1.5-3.1-6-3.9-6.5c-5.2-3.4-16.5-11.7-17.7-11.6c-3.1-1-7.1-6.8-7.7-6.8
		c-4.3,0.4-7.4-3.3-11.2-4.4c-5-1.4-9.8-3-15-3.7c-1.8-0.3-9.1-1.9-9.6-5c-1.5,1.8-3,3.5-4.4,5.3c0,0,0,0,0,0
		c-8.7,3.7-16.4,9.2-24.7,13.6c-0.1,0.7-0.4,0.9-1,0.6c-7.7,4.2-15.3,8.4-23,12.6c-2.2,2-4.8,3.5-7.6,4.5c-5.3,3.7-11,3.8-16.9,2.3
		c-0.1,0.1-0.2,0.3-0.1,0.4c0,0.3,0.1,0.6,0.2,0.9c0.3,2.8-1.7,4.5-2.9,6.5c-14.5,25-17.9,51.2-8.2,78.8c0,0,0,0,0,0
		c0.8,4.2,2.6,8.1,5.2,12.2c9.4-10.8,85.5-35.7,101.4-32.5c0.5-0.2,0.9-0.5,1.4-0.7 M88.6,69.3 M183,163.5c-0.2,0.3-0.4,0.6-0.5,0.9
		C182.6,164.1,182.8,163.8,183,163.5z M184.2,162.8c-0.4,0.1-0.8,0.3-1,0.6C183.4,163.1,183.7,162.9,184.2,162.8z"/>
	<path class="st1" d="M76.3,176.6c-14.8-8.3-18.7-6-22.9,13.6c-7.5,5.1-17.3,2-20.7-6.6c-1.3-3.5-2.8-6.5-6.4-7.7
		c-0.5-0.2-0.9-0.4-1.4-0.6c-0.7-0.3-1.4-0.6-2.7-1.1c7.9-10.4,16.6-19.2,27.2-26.3c4.8,9.9,13.7,9.4,22.1,10.1
		c0.6,0,1.1,0.1,1.7,0.1c1.6-0.1,3.2-0.1,4.8-0.2c2-0.3,3.9-0.2,5.7,0.7c3.8,6.9,1.5,13.6-6.1,18C77.3,176.7,76.8,176.7,76.3,176.6z
		"/>
	<path class="st2" d="M174,63c-0.8-0.5-1.6-0.9-2.4-1.4c-5.2-3.3-10.7-6.3-13.3-12.4c-0.8-0.9-1.8-1.1-2.9-0.9
		c-3.1-0.9-6.8-1.2-7.2-5.6c-0.6,0-1.1,0-1.7,0c-4.3,0.4-7.6-2.5-11.4-3.5c-5-1.3-9.8-2.9-15-3.6c-1.8-0.3-4.3,0.1-4.9-2.6
		c0.1-0.2-4.6-2.5-4.7-2.3c-1.5,1.7-3,3.4-4.4,5.2c4.7,4.6,11.3,5.5,16.7,9c15.7,10.1,27.1,23.4,33.6,41c1,2.8,0.1,7.4,4.9,8.1
		c2.2-2.3,0.8-5.3,1.9-8.3c1.8-2.2,4.1-4.5,6.9-4.3c2.5-1.6,1.7-5.1,4.8-5c0.9,0,1,0.5,0.6,1.2c-0.4,1.6-0.8,3.2-1.2,4.9
		c1.3,2.8,2.2,5.8,1.3,9.3c-6.9,5.9-7.6,12.4-9.4,20.6c0.2,1.4-6,24.7-2.3,37.3c0.3,0.4,0.5,0.7,0.8,1.1c3.3,2.8,6.5,5.5,9.8,8.3
		l-0.4,0.1l4.2,6.3l5.4,4.2l3.6-10.3c0.3-0.2,0.6-0.5,0.8-0.7c0.3-0.5,0.6-1,0.8-1.5c0.9-2.8,1.8-5.7,2.7-8.5
		c7.5-29.5,2.4-56.4-16.4-80.5C174.3,66.6,172.9,65.1,174,63z"/>
	<path class="st3" d="M50.4,192.9c4.5-1.7,6.9-4.4,7.2-9.8c0.4-7.8,5.9-10.3,12.7-6.2c4.8,3,8.7,2.1,12.2-1.8
		c4.7-5.2,6-12.3,2.8-16.1c-2.6-3.1-5.8-4.4-9.6-1.8c-1.1,0-9.4-0.7-12.5-1.5c-3.4-0.8-6.9-1.3-9.1-4.5c-0.2-2.8,1.5-4.2,3.5-5.2
		c-1.2-4.7,41.7-15.6,42.9-10.9c0,0,6.1-1.8,9.7-1.8c8-4.8,18.6,12.8,10.5,17.6c-1.9,1.1-2.7,3.5-3.7,5.5
		c-3.7,7.5-0.7,11.3,8.7,10.6c0.3,5.2-3.4,7.1-7.1,9.1c-3.5,1.8-8.3,0.1-11.5,4.2c-1.7,6.5,4,9.1,7.8,12.9
		C114.3,195.8,51,195.7,50.4,192.9z M88.4,146.6c2.4,5.4,8.5,8.9,13.7,7.9c3.6-0.7,5.7-2.8,4.1-6.7c-1.6-3.8-5-5.2-8.9-5.4
		C93.7,142.2,89.8,142,88.4,146.6z"/>
	<path class="st4" d="M111.5,84.7c-3.8-7.9-7.8-8.8-13.2-2.9c-0.2,1.1-0.5,2.2-0.7,3.3c0.6,1.8,1.1,3.6,1.7,5.5
		c0.9,0.5,1.8,1,2.7,1.5c1.2-0.7,2-2,3.3-2.5c1.6,0,5.6-0.8,6.4-2.1C112,86.6,111.6,85.5,111.5,84.7z"/>
	<g>
		<g>
			<g>
				<path class="st5" d="M162.1,186.2C162.1,186.1,162.1,186.1,162.1,186.2C162.1,186.1,162.1,186.1,162.1,186.2
					C162.1,186.1,162.1,186.2,162.1,186.2z"/>
			</g>
			<g>
				<g>
					<path class="st5" d="M181.7,171.5c-0.5,0.9-1.1,1.7-1.8,2.4C180.6,173.3,181.1,172.4,181.7,171.5c-2.1-3.7-5.2-6.6-8.6-9.1
						c-7.2-8.3-16.5-13.5-26.1-18.4c-0.4,0-0.7-0.1-1-0.3c-0.4-0.1-0.8-0.3-1.2-0.4c-0.3-0.2-0.7-0.4-1-0.6
						c-6.6-2.3-13-5.4-20.2-6.1l0,0.4l-0.4,0.1c1,2.6,2.6,4.9,2.7,7.8c0.3,6-4.9,9.5-6.9,14.4c-0.1,0.4-0.2,0.7-0.2,1.1
						c0,0.8,0,1.5,0,2.3c0.2,0.3,0.3,0.7,0.5,1c3.1,1.3,7-3.1,10.1,2.1c-0.4,11.7-9.8,13.7-19.1,15.3c1.2,5.5,5.2,9.4,10.1,10.3
						c4.6,0.8,7.8-1.1,10.1-5.1c1-1.7,2.3-3.4,3.8-4.7c4.3-3.8,11.5-3,14.2,1.4c0.8-0.1,1.6-0.1,2.3-0.2c1.2,0.1,2.5,0.3,3.7,0.4
						c3-0.4,5.9-0.3,7.4,2.9c1.7-0.2,3.3-1.2,5-0.2c0,0,0,0,0,0c0,0.2,0,0.4,0.1,0.6c0.8-0.2,1.6-0.5,2.3-0.7
						c6.9,0.2,13.1-1.6,19.4-5.7C186,177.2,184.9,173.6,181.7,171.5z M167.8,184.1c-2.4-1.3-2.1-3.5-1.6-5.5
						C165.7,180.6,165.4,182.8,167.8,184.1C167.8,184.1,167.8,184.1,167.8,184.1z M167.8,184C167.8,184,167.8,184,167.8,184
						L167.8,184c0.4-0.4,0.7-0.6,0.9-0.5C168.5,183.4,168.2,183.7,167.8,184z"/>
				</g>
			</g>
		</g>
	</g>
	<path class="st6" d="M91.3,147c6.3-2.7,9.1-2,12.5,3.3C98.7,153.1,95.4,150.1,91.3,147z"/>
	<path class="st1" d="M181.7,171.5c-0.5,0.9-1.1,1.7-1.8,2.4C180.6,173.3,181.1,172.4,181.7,171.5c-2.1-3.7-5.2-6.6-8.6-9.1
		c-7.2-8.3-16.5-13.5-26.1-18.4c-0.4,0-0.7-0.1-1-0.3c-0.4-0.1-0.8-0.3-1.2-0.4c-0.3-0.2-0.7-0.4-1-0.6c-6.6-2.3-13-5.4-20.2-6.1
		l0,0.4l-0.4,0.1c1,2.6,2.6,4.9,2.7,7.8c2.1-0.2,4.1,0.1,5.8,1.3c10.9,7.1,21.3,14.9,28.6,26.2c1.5,0.2,3.1,0.3,4.5,0.5
		c1.8,1.6,1.9,3.2,1.3,5.2c-0.5,2-1.1,4.5,1.5,5.9c0,0,0,0,0,0c-0.2,0.6-0.5,1.2-0.7,1.8c0,0.2,0,0.4,0.1,0.6
		c0.8-0.2,1.6-0.5,2.3-0.7c6.9,0.2,13.1-1.6,19.4-5.7C186,177.2,184.9,173.6,181.7,171.5z M167.8,184C167.8,184,167.8,184,167.8,184
		L167.8,184c0.4-0.4,0.7-0.6,0.9-0.5C168.5,183.4,168.2,183.7,167.8,184z M177.1,175L177.1,175c-1,0.1-1.8,0.3-2.3,0.9
		C175.3,175.3,176.1,175.1,177.1,175z M174.4,176.5c-0.1,0.2-0.1,0.4-0.1,0.6C174.3,176.9,174.4,176.7,174.4,176.5z M177.1,175
		L177.1,175C177.1,175,177.1,175,177.1,175z"/>
	<path class="st4" d="M111.5,84.7c-3.8-7.9-6.9-10.6-12.3-4.8c-0.2,1.1-2.7,1.6-2.9,2.7c0.6,1.8,2.4,6,3,7.9c0.9,0.5,1.8,1,2.7,1.5
		c1.2-0.7,2-2,3.3-2.5c1.6,0,5.6-0.8,6.4-2.1C112,86.6,111.6,85.5,111.5,84.7z"/>
	<path class="st6" d="M91.3,147c6.3-2.7,9.1-2,12.5,3.3C98.7,153.1,95.4,150.1,91.3,147z"/>
	<path class="st7" d="M159,146.5c-1.5-0.4-2.7-0.9-3-2.7c-0.5-3.7-3.2-6-5.6-8.4c0.1-1.1,0.3-2.1,0.4-3.2c1.9,0.3,3.7,1.8,6.1,0.4
		c0-4.9,2.8-9.8,1.3-15.1c0-1.1,0-2.3,0-3.4c4.5-1.5,4-5.6,4.6-9.1c1.3-0.8,0.7-3.4,3-3.3c-3.3,14.6-5.4,29.4-5.4,44.5
		C159.9,146.2,159.5,146.4,159,146.5z"/>
	<path class="st8" d="M158.2,114.1c0,1.1,0,2.3,0,3.4c-1.4-0.1-2.9-0.8-4.2,0.2c-2.9,3.7-5.7,7.3-8.4,10.8c1.4,2.5,3.8,2.5,5.3,3.8
		c-0.1,1.1-0.3,2.1-0.4,3.2c-3.8-1.3-7.5-1.8-11.2,0.3c-1.9,1.1-3.8,0.9-6.2-0.8c9.6-8.3,17.3-18,24.7-27.9c0.5,0.1,1.1,0.2,1.6,0.3
		C159.3,109.6,156.9,111.5,158.2,114.1z"/>
	<path class="st8" d="M163.2,105.4c-2.3-0.1-1.7,2.5-3,3.3c-0.7,0-1.5,0.1-2.2,0.1c-0.5,0-0.9-0.1-1.4-0.1c1.7-3.1,6.1-11.2,8-14.5
		C171,97.9,164.2,103.4,163.2,105.4z"/>
	<path class="st9" d="M168.2,89.5c1.3,0.1,2.3,0.7,3.2,1.7c-0.5,1.6-1,3-3.2,2C168.2,92,168.2,90.8,168.2,89.5z"/>
	<path class="st8" d="M168.2,89.5c0,1.2,0,2.5,0,3.7c-1.2-0.4-2.5-0.7-2.3-2.5C166,89.3,167,89.2,168.2,89.5z"/>
	<path class="st7" d="M171.6,87.3c-1.2-0.3-2.6-0.1-3-1.8c1.5-1.5,2.5-0.5,3.6,0.5C172,86.4,171.8,86.8,171.6,87.3z"/>
	<path class="st7" d="M150.9,142.5c-2.7-1.3-5.3-2.6-8-3.8c4.2-1.9,6.7-0.1,8.8,2.6C151.4,141.8,151.1,142.2,150.9,142.5z"/>
	<path class="st7" d="M154,129.4c-1.8,0-2.6-0.6-3.4-1.5c0.4-2.1,1.9-3.3,3.9-4.9C155,125.3,154.9,127.3,154,129.4z"/>
	<g>
		<path class="st8" d="M61.5,96.7c0,1.4,0,2.9,0,4.3c-8.9-0.9-13,3.6-11.4,12.3c-0.4,0.3-0.8,0.7-1.3,1c-1.9-3.5-3.2-7.2-4.3-11.5
			C50.3,100.5,55.5,97.7,61.5,96.7z"/>
		<path class="st8" d="M66.9,113.8c0.9,1.2,1.8,2.3,2.6,3.5c-5,3.2-10.8,4.4-16.4,6.5c-2.6-2.8-3.2-6.3-4.3-9.5
			c0.4-0.3,0.8-0.7,1.3-1C55.3,120.6,60.8,120.7,66.9,113.8z"/>
		<path class="st8" d="M70.9,136.3c-2.3,1.7-4.8,2.5-7.8,3.2c-1-2.6-2-5.1-3-7.5c1.6-2.1,3.7-2.3,5.6-2.8
			C69.1,130.3,68.4,134.5,70.9,136.3z"/>
		<path class="st8" d="M66.1,125c-2.8,1.4-5.7,2.8-10,3.4c2.9-4.6,6.7-4.4,9.9-5.6C66,123.6,66.1,124.3,66.1,125z"/>
		<path class="st7" d="M55,95.1c-2.3,1.4-4.6,2.6-8,2.8c1.6-4.4,5.4-3.6,8-4.9C55,93.7,55,94.4,55,95.1z"/>
		<path class="st7" d="M49.4,90.9c0.2-1.9,0.3-3.1,0.4-4.3c2.2,0.1,3.1,1.2,3.5,2.8C52.5,90.9,51.2,90.6,49.4,90.9z"/>
	</g>
	<path class="st7" d="M69.5,99.1c-2.5,2.3-0.2,4.4,0.4,6.5c1,3.3,2.5,6.4,3.7,9.6c-0.7,2-2.4,2.1-4,2.2c-0.9-1.2-1.8-2.3-2.6-3.5
		c1.1-5.5,0-10-5.4-12.8c0-1.4,0-2.9,0-4.3c1.1-0.5,2.2-1.1,3.2-1.6c1.7,0.6,2.4,2.9,4.6,2C69.3,97.8,69.4,98.4,69.5,99.1z"/>
	<path class="st7" d="M70.9,136.3c-2.5-1.8-1.8-6-5.2-7.1c2.2-1.4,4.5-2.2,7.4-2.8c1.1,2.7,2.1,5.4,3.1,7.8
		C74.6,136.4,72.7,136.1,70.9,136.3z"/>
	<path class="st9" d="M66.1,125c0-0.7,0-1.5-0.1-2.2c1.9-1.3,3.9-2.5,6.9-2C71.4,124.2,68.6,124.4,66.1,125z"/>
	<path class="st9" d="M55,95.1c0-0.7,0-1.4,0-2.1c1.6-1.1,3.3-2.2,5.6-0.6C59.1,94.6,57.1,94.9,55,95.1z"/>
	<circle class="st10" cx="58.9" cy="109.2" r="8.3"/>
</g>
<g id="Layer_1">
	<path class="st10" d="M127.2,97.1c0,3.8-5.2,6.8-11.7,6.8s-12.5-4.2-12.5-8s10.6-9.9,17-9.9C126.5,86,127.2,93.3,127.2,97.1z"/>
	<g>
		<path class="st11" d="M81.3,49.2c8.3-4.3,16-9.8,24.7-13.4c1.5-1.7,3-3.4,4.4-5.2c-0.3-4.2-3.2-6-6.7-7.1
			c-7.3-2.2-14.3-1-20.9,2.5c-6.7,3.5-13.2,7.3-19.7,10.9c-6.9-0.5-13.3-3.7-20.3-2.1c5.5,2.3,11.3,3.5,17,4.9
			c7,1.7,11.1-5.2,17.3-6.1c1.7,1.2,2.3,3.2,3.3,4.9c5.5-2.2-0.9-4.8,0.6-7.6c0.4-0.5,1.3-1.4,2.6-1.1c2.3,1.2,1.9,5.1,5.2,5.1
			c1.9-3-2.2-4.7-1.2-7.2c8.9-3.3,15-2.5,19.7,3c-16.8,9.6-33.5,19.2-50.2,28.7c-2.8,0.9-5.6,2-7.8,4.2c-11.6,4.9-24.2,1.2-31.3-9.1
			c0.1-0.5,0.2-1,0.3-1.5c5.6,1,11.1,2,16.8,3c4.2-2.3,8.5-4.6,12.4-6.7c4.2,1.2,6.4,4.7,10.1,5.1c0.9-0.8,0.7-1.8,0.6-2.7
			c-6.5-4.1-13.1-8.3-19.6-12.4c-0.4,0.2-0.6,0.4-0.7,0.6c0.1-0.2,0.3-0.4,0.7-0.6c-0.5-0.6-1.1-1.2-1.6-1.8
			c-0.9-0.4-1.7-0.9-2.6-1.3c-0.9,0-1.9,0-2.8,0c0,0,6.6,5.8,6.6,5.8c1.4,2.1,4.5,2.5,5.5,5.6c-3.2,1.8-6.4,3.5-9.3,5.1
			c-7.7-1.1-14.9-3.8-22.9-3.8c3.3,11.5,12.9,14.9,21.1,19.9c5.9,1.5,11.7,1.4,16.9-2.2c2.8-1,5.4-2.4,7.6-4.4"/>
		<path class="st11" d="M191.8,148.5c-0.9,2.8-8.3,19-9.2,21.8c0.9,0.1,1.7,0.2,2.6,0.3c1.7-1.7,8.7-17.2,9.1-19.4
			c1-1.2,1.6-2.6,1.2-4.2c6.8-29.4,1.4-56.2-17-80.2c-1.2-1.5-2.1-3.6-4.5-3.7c-1,2.1,0.3,3.5,1.5,5
			C194.2,92.1,199.3,119,191.8,148.5z"/>
		<path class="st11" d="M120,35.6c5.1,0.7,10,2.3,15,3.6c3.9,1,7.2,3.9,11.4,3.5c0-3.3-2.9-3.6-4.9-4.4c-7.1-3-14.6-4.8-22.3-6.2
			c-1.5-0.3-2.9-0.4-4.1,0.8C115.7,35.8,118.1,35.4,120,35.6z"/>
		<path class="st11" d="M171.5,61.6c-0.5-4.7-7.4-11.2-13.3-12.4C160.9,55.3,166.4,58.3,171.5,61.6z"/>
		<path class="st11" d="M38.3,35.3c1.2-0.3,2.7,0,2.4-2.6c-3.5-0.7-7-2.7-11.1-1.7c-0.3,2.4,1,3.7,2,5.2c0.9,0,1.9,0,2.8,0
			C35.3,33.9,36.8,34.8,38.3,35.3z"/>
		<path class="st11" d="M155.3,48.3c-0.2-4.7-3.7-5.2-7.2-5.6C148.5,47.2,152.2,47.4,155.3,48.3z"/>
		<path class="st11" d="M105.9,89.3c-1.8,0.2-2.6,1.8-4,2.7c-1.5,3.8-1.7,7.6,1.3,10.8c4.5,4.7,21.1,3.5,25-1.8
			c0.5-0.7,1-1.6,1.3-2.4c1.5-4.2,0.9-8.1-2.3-11.2c-4.1-4.1-8.8-4-13.7-1.5c-0.6,0.5-1.2,1-1.8,1.4c0,0-0.1,0-0.1,0
			C110.8,88.8,106.9,89.5,105.9,89.3z M113.1,91.6c2-3.5,4.9-5.1,8.8-4c3.4,0.9,5.2,3.5,5.2,7c0,4-2.1,6.8-6.2,7.3
			c-3.5,0.4-7,0.2-10.5,0.2c-3.1,0-5.5-1.1-6.2-4.3c-0.7-3.3,1.2-5.1,4.3-6.3c1.7,1.1,0.1,3.4,2.2,3.8
			C112.9,95.1,112.3,92.9,113.1,91.6z"/>
		<path class="st11" d="M104.9,64.7c-2.5,2.8-2.5,5.1,0.1,8.6C106.4,69.8,106.7,67.5,104.9,64.7z"/>
		<path class="st11" d="M96.3,76c-1.3-3.3-2.8-5.4-7.2-5.9C90.7,73.8,91.9,76.5,96.3,76z"/>
		<path class="st11" d="M90.8,98.8c2.1-1.4,5.5-1.7,4.8-5.9C92.2,93.6,90.5,95.3,90.8,98.8z"/>
		<path class="st11" d="M118.6,70c-3.7,1.2-5.8,2.6-5.8,6.3C116.1,75.5,117.8,73.9,118.6,70z"/>
		<path class="st11" d="M102.7,75.2c-4.6,0.5-6.9,3.4-8.2,7.5c-0.8,0.2-1.5,0.3-2.3,0.5c-2.8-0.1-5.9-1.5-8.9,1.8
			c3.3,1.5,6.1,1.1,8.9,0.6c0.9,0.9,1.8,1.7,2.7,2.6c1,1.5,1.9,3.1,4.2,2.2c-0.6-1.8-1.1-3.7-1.7-5.5c-0.6-1.3-0.5-2.4,0.7-3.3
			c5.4-5.9,9.4-5,13.2,2.9c0.1,0.9,0.2,1.8,0.3,2.7c0.6-0.5,1.2-1,1.8-1.4c0-0.5,0.1-1,0.1-1.5c0-0.5-0.1-1.1-0.1-1.6
			c-0.7-4.3-3.3-6.7-7.5-7.5C104.9,74.7,103.8,74.7,102.7,75.2z"/>
		<path class="st11" d="M97.4,142.4c-3.6-0.2-7.5-0.4-8.9,4.2c2.4,5.4,8.5,8.9,13.7,7.9c3.6-0.7,5.7-2.8,4.1-6.7
			C104.7,144,101.2,142.6,97.4,142.4z M91.3,147c6.3-2.7,9.1-2,12.5,3.3C98.7,153.1,95.4,150.1,91.3,147z"/>
		<path class="st11" d="M50.1,113.3c5.2,7.3,10.7,7.4,16.8,0.5c1.1-5.5,0-10-5.4-12.8C52.7,100.2,48.5,104.7,50.1,113.3z
			 M64.2,109.9c0,2.2-1.1,3.9-3,4.9c-2.2,1.2-4.3,0.9-6.2-0.5c-3.3-2.5-3-6,0.9-9.5c0.9-1.4,2.2-1,3.5-0.7
			C62.7,104.7,64.2,106.8,64.2,109.9z"/>
		<path class="st11" d="M154,117.6c-2.9,3.7-5.7,7.3-8.4,10.8c1.4,2.5,3.8,2.5,5.3,3.8c1.9,0.3,3.7,1.8,6.1,0.4
			c0-4.9,2.8-9.8,1.3-15.1C156.8,117.3,155.3,116.7,154,117.6z M154,129.4c-1.8,0-2.6-0.6-3.4-1.5c0.4-2.1,1.9-3.3,3.9-4.9
			C155,125.3,154.9,127.3,154,129.4z"/>
		<path class="st11" d="M56.9,105.4c0,1.9-1.4,3.7-0.6,6.1c1.7-0.2,3.2-0.2,4.2-2.2c-0.4-1.2-0.9-2.6-1.4-4
			C58.4,105.4,57.6,105.4,56.9,105.4z"/>
		<path class="st11" d="M186.2,169c-2.4-0.3-4.3-1.4-5.2-3.9c-0.7-0.7-1.4-1.3-2.1-2c-0.9-0.3-1.7-0.8-2-1.7
			c-0.3-0.4-0.8-1.1-1.1-1.6c-3.6-3.1-7.3-6.2-10.9-9.3c-0.2-0.5-0.6-1.1-0.8-1.6c-0.7-10.3-0.4-20.6,2-30.8
			c-0.1-1.3-0.1-2.6,0.8-3.8c1.8-8.2,2-17,8.9-22.8c0.9-3.5,0-6.5-1.3-9.3c0.4-1.7,0.8-3.3,1.2-4.9c0.4-0.7,0.2-1.2-0.6-1.2
			c-3.1,0-2.3,3.4-4.8,5c-2.9-0.2-5.1,2.1-6.9,4.3c-1.1,3,0.3,6.1-1.9,8.3c-5.7,11.8-13.5,22-22.8,31.1c-2.5,3.2-5.3,5.9-8.7,8.1
			c-0.8,0.1-1.8,0.3-2.6,0.5c-15.4-2.9-30.8-2.8-46.2,0.1c-0.5-0.3-1-0.5-1.5-0.8c-1.5-2.9-3.2-5.7-2.3-9.1
			c-1.3-2.6-1.2-5.2,0.5-7.9c-3.3-5.4-3.3-12.3-8.1-17c-2.5,2.3-0.2,4.4,0.4,6.5c1,3.3,2.5,6.4,3.7,9.6c-0.7,2-2.4,2.1-4,2.2
			c-5,3.2-10.8,4.4-16.4,6.5c-2.6-2.8-3.2-6.3-4.3-9.5c-1.9-3.5-3.2-7.2-4.3-11.5c5.7-2.3,11-5.1,16.9-6.1c1.1-0.5,2.2-1.1,3.2-1.6
			c1.7,0.6,2.4,2.9,4.6,2c-0.3-2.7,0.1-5.9-4.2-5.7c-0.5-0.1-1-0.3-1.4-0.4c0,0-0.2-0.2-0.2-0.2c0.1-0.6-0.2-1-0.9-1.1
			c-8.5-2.6-13.2-9.2-17.4-16.9c2.9,10.8,2.1,20.5-4.3,29.5c3,8.2,6.1,16.2,9,24.2c3.6,1.7,3.6,1.7,4.9,5.2c3.7,1.8,3.7,5.6,5,9.4
			c-12.3,6.4-23.5,14.1-32.9,24.7c-2.6-4-4.3-7.8-5.2-12c-9.7-27.1-6.3-52.9,8.2-77.4c1.2-2,3.2-3.7,2.9-6.4c-3-0.6-3.8,1.9-4.9,3.7
			C15,94.1,10.5,116.2,14.5,140c1.7,10.1,5.3,19.5,9.5,28.2c-3.7,5.8-7.2,11-10.6,16.3c-1,1.5-2.5,3-0.8,4.9c3.7-0.8,4-4.5,5.6-7
			c1.8-2.9,3.9-4.9,7.3-4.8c3.5,0.1,5,2.5,6,5.5c2,5.9,7.2,7.9,12.4,9.8c2.3,0,4.4,0,6.6,0c4.5-1.7,6.8-4.4,7.1-9.8
			c0.4-7.8,5.9-10.3,12.7-6.2c4.8,3,8.7,2.1,12.2-1.8c4.7-5.2,6-12.3,2.8-16.1c-2.3-2.7-5.1-4.1-8.4-2.5c-1.1,0.5-2.3,0.7-3.5,0.7
			l-1,0c0,0-6.2-0.7-9.2-1.4c-3.4-0.8-6.9-1.3-9.1-4.5c-0.2-2.8,1.5-4.2,3.5-5.2c13.5-6.8,27.6-11.3,42.9-10.9c2.5,0,4.4-0.1,6.7,0
			c0.5,0,1.3,0,1.7-0.1c4.9-0.6,9.4-0.2,11.7,5.4c3.2,3.5,2.4,7,0.1,10.6c-1.2,1.8-2.7,3.5-3.7,5.5c-3.7,7.5-0.7,11.3,8.7,10.6
			c0.3,5.2-3.4,7.1-7.1,9.1c-3.5,1.8-8.3,0.1-11.5,4.2c-1.7,6.5,4,9.1,7.8,12.9c4.7,1.5,9.5,2.4,14.2,0.1c0.5-0.6,1.1-1,1.4-1.7
			c3.7-7.7,9.7-10.6,18.1-8.6c-2.8-4.4-10-5.1-14.3-1.4c-1.5,1.3-2.8,3-3.8,4.7c-2.2,4.1-5.5,5.9-10.1,5.1c-4.9-0.8-9-4.8-10.1-10.3
			c9.3-1.6,18.7-3.6,19.1-15.3c-3-5.1-6.8-1-9.8-2c-0.2-0.4-0.5-0.7-0.7-1.1l0-2.3c0-0.3-0.1-0.5-0.1-0.8c0,0.3,0.1,0.5,0.1,0.8
			c0.1-0.4,0.2-0.7,0.2-1.1c2-4.9,7.2-8.4,6.9-14.4c-0.1-2.9-1.8-5.2-2.7-7.8l0.4-0.1c0,0,0-0.4,0-0.4c7.1,0.6,13.5,3.8,20.2,6.1
			c0.4,0.2,0.8,0.4,1.1,0.7c0.4,0,0.9,0,1.4,0c0.3-0.1,0.4,0.1,0.6,0.4c-0.2-0.4-0.5-0.6-0.9-0.1c0.3,0.2,0.6,0.3,1,0.3
			c9.6,4.9,18.9,10.2,26.1,18.4c3.4,2.5,6.5,5.4,8.6,9.1c3.2,2.1,4.3,5.7,7.3,8.6c-6.3,4-12.5,5.9-19.4,5.7
			c-0.8,0.2-2.4,0.3-2.4,0.1c-1.7-1-3.3,0-5,0.2c-1.5-3.3-4.4-3.3-7.4-2.9c-1.2-0.1-2.5-0.3-3.7-0.4c0.3,2.3,1.9,2.8,3.9,2.9
			c2.3,1.8,4.7,2.5,7.3,0.5c1.1,2,2.7,2.8,4.9,2.4c0.8,0.3,1.6,0.5,2.4,0.8c6.5-0.3,12.7-1.9,18.7-4.3c0.4-0.4,0.8-0.9,1.3-1.1
			c-0.4,0.2-0.8,0.7-1.3,1.1c1.1,0,2.2,0,3.3,0.1c-0.1-0.1-0.1-0.3-0.2-0.4c0.1,0.1,0.1,0.3,0.2,0.4c1.3,1.2,1.6,3.9,4.3,3
			c0.1-4.4-3.4-7.1-5.1-10.6C189.2,174.6,185.8,172.8,186.2,169z M49.8,86.6c2.2,0.1,3.1,1.2,3.5,2.8c-0.8,1.5-2.1,1.2-3.9,1.5
			C49.6,89,49.7,87.8,49.8,86.6z M55,93c1.6-1.1,3.3-2.2,5.6-0.6c-1.4,2.2-3.5,2.5-5.6,2.7c-2.3,1.4-4.6,2.6-8,2.8
			C48.6,93.5,52.4,94.3,55,93z M70.5,159.3c0.5-0.2,4.6,0,6.1,0c1.8-0.2,3.7-0.2,5.3,0.6c3.6,6,1.4,11.9-5.6,15.7
			c-0.5,0-0.9,0-1.4-0.1c-13.7-7.2-17.4-5.2-21.3,11.8c-7,4.4-16.1,1.8-19.2-5.7c-1.2-3-2.6-5.7-5.9-6.7c-0.4-0.2-0.9-0.4-1.3-0.5
			c-0.7-0.2-1.3-0.5-2.5-0.9c7.4-9.1,15.5-16.8,25.3-22.9C54.3,159.2,62.6,158.7,70.5,159.3z M56.1,128.4c2.9-4.6,6.7-4.4,9.9-5.6
			c1.9-1.3,3.9-2.5,6.9-2c-1.5,3.4-4.4,3.6-6.8,4.3C63.2,126.5,60.4,127.8,56.1,128.4z M70.9,136.3c-2.3,1.7-4.8,2.5-7.8,3.2
			c-1-2.6-2-5.1-3-7.5c1.6-2.1,3.7-2.3,5.6-2.8c2.2-1.4,4.5-2.2,7.4-2.8c1.1,2.7,2.1,5.4,3.1,7.8C74.6,136.4,72.7,136.1,70.9,136.3z
			 M172.2,86c0.6,0.8,0.5,1.2-0.6,1.3c-1.2-0.3-2.6-0.1-3-1.8C170,83.9,171.1,85,172.2,86z M165.9,90.8c0.2-1.5,1.1-1.6,2.3-1.3
			c1.3,0.1,2.3,0.7,3.2,1.7c-0.5,1.6-1,3-3.2,2C167,92.8,165.7,92.6,165.9,90.8z M150.9,142.5c-2.7-1.3-5.3-2.6-8-3.8
			c4.2-1.9,6.7-0.1,8.8,2.6C151.4,141.8,151.1,142.2,150.9,142.5z M160.4,146.1c-0.5,0.1-1,0.3-1.5,0.4c-1.5-0.4-2.7-0.9-3-2.7
			c-0.5-3.7-3.2-6-5.6-8.4c-3.8-1.3-7.5-1.8-11.2,0.3c-1.9,1.1-3.8,0.9-6.2-0.8c9.6-8.3,17.3-18,24.7-27.9c0.5-0.7,1-1.3,1.5-2
			c1.7-3.1,3.5-6.1,5.4-9.4c3.6,2,2.2,4.1,1.2,6.1C162.6,116.3,160.4,131,160.4,146.1C160.4,146.1,160.4,146.1,160.4,146.1z"/>
		<path class="st11" d="M159.4,107.2c-0.1,2.3-2.5,4.3-1.2,6.8c4.5-1.5,4-5.6,4.6-9.1c-0.7,0-1.5,0.1-2.2,0.1
			C160.2,105.8,159.8,106.5,159.4,107.2z"/>
	</g>
</g>
</svg>
