<?xml version="1.0" encoding="utf-8"?>
<!-- Generator: Adobe Illustrator 27.4.1, SVG Export Plug-In . SVG Version: 6.00 Build 0)  -->
<svg version="1.1" id="Layer_1" xmlns="http://www.w3.org/2000/svg" xmlns:xlink="http://www.w3.org/1999/xlink" x="0px" y="0px"
	 viewBox="0 0 200 200" style="enable-background:new 0 0 200 200;" xml:space="preserve">
<style type="text/css">
	.st0{fill:#5393FF;}
	.st1{fill:#A0C4F9;}
	.st2{fill:#3E453D;}
	.st3{fill:#2979FF;}
	.st4{fill:#A9B0B2;}
	.st5{fill:#595B5A;}
	.st6{fill:#8C9191;}
	.st7{fill:#727772;}
	.st8{fill:#33AB9F;}
	.st9{fill:#009688;}
	.st10{fill:#C5C7C6;}
	.st11{fill:#CCEBE7;}
	.st12{fill:#FFC400;}
	.st13{fill:#4CAF50;}
	.st14{fill:#ABD29B;}
</style>
<path class="st0" d="M28,70.6c-0.1-0.3-0.2-0.6-0.2-0.9c0-0.1,0.1-0.3,0.1-0.4c6.1,1.6,11.9,1.4,17.3-2.3c2.9-1,5.5-2.4,7.8-4.5
	c7.8-4.2,15.7-8.4,23.5-12.7c0.6,0.4,1,0.1,1.1-0.6c8.5-4.4,16.4-10,25.3-13.7c4.8,4.7,11.6,5.6,17.1,9.2
	c16,10.4,27.7,23.9,34.4,41.9c1,2.8,0.1,7.6,5,8.3c-5.8,12.1-13.8,22.5-23.3,31.8c-2-0.3-4.1-0.4-6.1-0.8
	c-18.8-3.5-37.7-4.5-56.5-0.5c-1.3-2.6-1.2-5.3,0.5-8c-3.4-5.5-3.4-12.5-8.3-17.3c-0.1-0.7-0.1-1.4-0.2-2c-0.3-2.8,0.1-6.1-4.3-5.8
	c-0.5-0.1-1-0.3-1.5-0.4l-0.3-0.2c0.1-0.7-0.2-1-0.9-1.1c-8.6-2.7-13.5-9.4-17.7-17.3c3,11,2.2,21-4.4,30.2
	c3.1,8.3,6.2,16.6,9.2,24.7c3.7,1.8,3.7,1.8,5,5.3c-12.7,5.4-23.7,13.4-33.8,22.6c-9.9-27.7-6.5-54,8.4-79.1
	C26.2,75.1,28.3,73.4,28,70.6z M110.7,85.3c0-0.6-0.1-1.1-0.1-1.7c-0.7-4.4-3.4-6.9-7.7-7.7c-1.1-0.5-2.3-0.5-3.4,0
	c-4.7,0.5-7.1,3.5-8.4,7.7c-0.8,0.2-1.6,0.4-2.4,0.5c-2.9-0.1-6.1-1.5-9.1,1.9c3.4,1.5,6.3,1.1,9.1,0.7c0.9,0.9,1.9,1.8,2.8,2.7
	c1,1.6,2,3.2,4.3,2.2c0.9,0.5,1.9,1,2.8,1.5c-1.5,3.9-1.8,7.7,1.4,11.1c4.6,4.8,21.6,3.6,25.5-1.8c0.5-0.7,1-1.6,1.3-2.5
	c1.6-4.3,0.9-8.2-2.3-11.5c-4.2-4.2-9-4.1-14-1.5C110.6,86.3,110.6,85.8,110.7,85.3z M101.8,73.9c1.5-3.5,1.8-5.9-0.1-8.8
	C99.1,68,99.1,70.4,101.8,73.9z M85.5,70.6c1.7,3.9,2.9,6.6,7.4,6C91.6,73.3,90,71.1,85.5,70.6z M87.3,100c2.2-1.4,5.6-1.8,5-6.1
	C88.7,94.7,87,96.4,87.3,100z M115.8,70.6c-3.8,1.2-5.9,2.7-5.9,6.5C113.2,76.2,114.9,74.5,115.8,70.6z"/>
<path class="st1" d="M46.1,196.2c4.6-1.7,7.1-4.5,7.3-10c0.4-8,6-10.6,13-6.3c4.9,3,8.9,2.1,12.5-1.9c4.8-5.3,6.1-12.6,2.8-16.5
	c-2.6-3.1-6-4.5-9.8-1.8c-1.1,0-2.2-0.1-3.4-0.1c-2.9-1.8-6.3-0.7-9.4-1.4c-3.4-0.9-7.1-1.3-9.3-4.6c-0.3-2.9,1.5-4.2,3.6-5.3
	c13.8-6.9,28.2-11.6,43.9-11.2c2.2,1.6,4.5,1.7,6.7,0c0.4,0,0.8,0,1.2,0c-0.1,1.6,0.2,2.9,2.1,3.3c3.5,0.9,6.9,2.5,10.7,2.1
	c3.3,3.6,2.4,7.2,0.1,10.8c-1.2,1.9-2.8,3.6-3.8,5.6c-3.8,7.6-0.7,11.5,8.9,10.8c0.3,5.4-3.5,7.3-7.3,9.3c-3.6,1.9-8.5,0.1-11.8,4.3
	c-1.7,6.7,4.1,9.3,7.9,13.1c-0.7,2.7-3,1.9-4.7,1.9c-18.9,0.1-37.8,0.1-56.7,0C48.9,198.3,46.6,199,46.1,196.2z M84.9,148.9
	c2.4,5.5,8.6,9.1,14,8.1c3.7-0.8,5.8-2.9,4.2-6.8c-1.6-3.9-5.2-5.3-9.1-5.5C90.3,144.4,86.3,144.2,84.9,148.9z"/>
<path class="st2" d="M52.8,59.7c17.1-9.8,34.1-19.5,51.3-29.3c-4.7-5.7-11-6.5-20.1-3.1c-1,2.6,3.2,4.3,1.2,7.4
	c-3.4,0-2.9-3.9-5.3-5.2c-1.3-0.2-2.2,0.7-2.6,1.2c-1.5,2.9,5,5.5-0.6,7.8c-1-1.8-1.6-3.8-3.3-5c-6.4,0.9-10.5,7.9-17.7,6.2
	c-5.9-1.4-11.7-2.6-17.4-5C45.4,33,52,36.2,59,36.8c6.6-3.7,13.3-7.5,20.1-11.1c6.7-3.6,13.9-4.7,21.3-2.5c3.6,1.1,6.6,2.9,6.9,7.2
	c-1.5,1.8-3,3.5-4.5,5.3c-8.9,3.7-16.8,9.2-25.3,13.7c-0.4,0.2-0.7,0.4-1.1,0.6c-7.8,4.2-15.7,8.4-23.5,12.7
	C52.9,61.6,52.9,60.6,52.8,59.7z"/>
<path class="st1" d="M165.2,191.7c0.8,0.3,1.6,0.5,2.4,0.8c-0.3,2.3,2.2,3.5,2.3,5.7c-4.2,0.1-8.4,0.1-12.6,0.2c-8,0-15.9,0-23.9,0
	c-2.3-0.6-5.3,1.3-7-1.8c0.5-0.6,1.1-1.1,1.4-1.7c3.8-7.9,9.9-10.8,18.5-8.8c0.8-0.1,1.6-0.1,2.4-0.2c0.3,2.4,2,2.9,4,2.9
	c2.4,1.8,4.8,2.5,7.5,0.5l-0.1-0.1C161.3,191.3,162.9,192.2,165.2,191.7z"/>
<path class="st1" d="M7.4,192.7c3.7-0.9,4.1-4.6,5.7-7.1c1.8-2.9,4-5,7.5-4.9c3.6,0.1,5.1,2.5,6.1,5.6c2,6.1,7.3,8.1,12.7,10
	c-0.2,1.3-0.9,2-2.2,2c-10.4,0-20.8,0-31.1,0C5,195.5,6,194.1,7.4,192.7z"/>
<path class="st2" d="M12.9,54.6c7.2,10.6,20.2,14.3,32,9.3c0.1,1,0.2,2,0.3,3.1c-5.4,3.7-11.2,3.9-17.3,2.3
	C19.6,64.2,9.7,60.7,6.4,49c8.1-0.1,15.5,2.7,23.4,3.8c3-1.6,6.2-3.4,9.5-5.2c-1-3.2-4.2-3.5-5.6-5.7c-0.1-1-1.2-2.1,0.4-2.8
	c6.7,4.2,13.4,8.5,20,12.7c0.1,0.9,0.3,1.9-0.6,2.7c-3.8-0.4-6.1-4-10.4-5.3c-4,2.1-8.4,4.5-12.7,6.8c-5.8-1-11.5-2-17.2-3
	c-0.3,0.1-0.6,0.2-0.9,0.2C12.5,53.8,12.7,54.2,12.9,54.6z"/>
<path class="st2" d="M190.6,150.8c7.7-30.1,2.5-57.6-16.8-82.3c-1.1-1.5-2.5-2.9-1.5-5.1c2.5,0.1,3.4,2.2,4.6,3.7
	c18.8,24.6,24.3,52,17.4,82c-0.5,0.5-1.1,1.1-1.6,1.6C192,150.8,191.3,150.8,190.6,150.8z"/>
<path class="st1" d="M170,198.2c-0.1-2.2-2.6-3.3-2.3-5.7c6.7-0.3,13-1.9,19.2-4.4c1.1,0,2.3,0,3.4,0.1c1.3,1.3,1.6,4,4.4,3.1
	c0.2,2,2,3.7,0.6,6.9C187.1,198.2,178.5,198.2,170,198.2z"/>
<path class="st2" d="M144.1,42.8c-4.4,0.4-7.7-2.5-11.7-3.6c-5.1-1.4-10.1-3-15.3-3.7c-1.9-0.3-4.4,0.2-5-2.7
	c1.2-1.2,2.6-1.1,4.2-0.8c7.8,1.4,15.5,3.2,22.8,6.3C141.2,39.1,144.2,39.4,144.1,42.8z"/>
<path class="st2" d="M169.8,62c-5.3-3.4-10.9-6.5-13.6-12.7C162.2,50.6,169.3,57.2,169.8,62z"/>
<path class="st2" d="M26.8,36c-1-1.5-2.4-2.9-2.1-5.3c4.2-1,7.7,1.1,11.4,1.8c0.3,2.7-1.3,2.4-2.5,2.7c-1.5-0.5-3-1.4-3.9,0.8
	C28.7,36,27.8,36,26.8,36z"/>
<path class="st2" d="M190.6,150.8c0.7,0,1.4,0,2.1,0c0.1,0.9,0.3,1.8,0.4,2.7c-0.4,2.3-0.8,4.5-2.6,6.2c-0.9-0.1-1.8-0.2-2.7-0.3
	C188.7,156.6,189.6,153.7,190.6,150.8z"/>
<path class="st2" d="M26.8,36c1,0,1.9,0,2.9,0c0.9,0.5,1.8,0.9,2.6,1.4c0.6,0.6,1.1,1.2,1.7,1.9c-1.6,0.7-0.5,1.8-0.4,2.8
	C30.7,40.6,27.4,39.8,26.8,36z"/>
<path class="st2" d="M153.2,48.4c-3.2-1-6.9-1.2-7.4-5.7C149.5,43.1,153,43.6,153.2,48.4z"/>
<path class="st3" d="M184.8,171.8c-2.4-0.3-4.3-1.4-5.2-3.8c0.5-0.1,1.1-0.2,1.6-0.3c0.8,0,1.5,0.1,2.3,0.1c0.3,1.3,0,2.9,1.2,4
	L184.8,171.8z"/>
<path class="st2" d="M184.7,171.7c-1.2-1.1-0.9-2.6-1.2-4c0.5-0.7,1-1.5,1.4-2.2c1,0,2-0.1,3.1-0.1c0,0.7-0.1,1.5-0.1,2.2
	C186.8,169,185.7,170.3,184.7,171.7z"/>
<path class="st2" d="M190.4,162c-0.4,0.4-0.8,0.8-1.2,1.2c-1.5,0-2.1-0.8-2.3-2.2c0.3-0.5,0.6-1,0.9-1.5c0.9,0.1,1.8,0.2,2.7,0.3
	C190.5,160.5,190.5,161.2,190.4,162z"/>
<path class="st2" d="M193.1,153.6c-0.1-0.9-0.3-1.8-0.4-2.7c0.5-0.5,1.1-1.1,1.6-1.6C194.7,150.9,194.2,152.3,193.1,153.6z"/>
<path class="st3" d="M136,126.9c-2.6,3.2-5.5,6.1-8.9,8.3c-0.5,0.2-1,0.5-1.4,0.7c-16.3-3.2-32.6-3.1-48.9-0.1
	c-0.4-0.3-0.8-0.7-1.2-1c-1.5-2.9-3.2-5.7-2.2-9.2c18.9-4,37.7-3,56.5,0.5C131.9,126.5,133.9,126.6,136,126.9z"/>
<path class="st3" d="M50.5,133.7c3.7,1.9,3.7,5.7,5.1,9.6C43,149.7,31.5,157.7,22,168.5c-2.7-4.1-4.4-8-5.3-12.2
	C26.8,147.1,37.7,139,50.5,133.7z"/>
<path class="st2" d="M110.6,86.8c5-2.6,9.8-2.7,14,1.5c3.2,3.2,3.9,7.2,2.3,11.5c-0.3,0.9-0.8,1.7-1.3,2.5
	c-3.9,5.4-20.9,6.6-25.5,1.8c-3.2-3.3-2.9-7.1-1.4-11.1c1.4-0.9,2.3-2.5,4.1-2.7c0.9,0.2,5-0.5,5.9-2c0,0,0.1,0,0.1,0
	C109.3,87.8,110,87.3,110.6,86.8z M105.3,92.6c-3.1,1.2-5.1,3-4.4,6.4c0.7,3.3,3.3,4.4,6.4,4.4c3.6,0,7.2,0.2,10.7-0.2
	c4.1-0.5,6.2-3.4,6.3-7.5c0-3.6-1.8-6.2-5.3-7.2c-3.9-1.1-7,0.5-9,4.1c-0.8,1.4-0.2,3.6-2.5,3.9C105.4,96.1,107,93.7,105.3,92.6z"/>
<path class="st4" d="M65.5,100.3c-2.5,2.3-0.3,4.5,0.4,6.6c1,3.4,2.5,6.6,3.8,9.8c-0.7,2.1-2.4,2.2-4.1,2.2
	c-0.9-1.2-1.8-2.4-2.7-3.6c1.2-5.6,0-10.3-5.5-13.1c0-1.5,0-2.9,0-4.4c1.1-0.6,2.2-1.1,3.2-1.6c1.7,0.6,2.5,3,4.7,2
	C65.4,99,65.4,99.6,65.5,100.3z"/>
<path class="st2" d="M94.2,85.9c0.6,1.9,1.1,3.7,1.7,5.6c-2.3,1-3.3-0.6-4.3-2.2c-0.2-1.9-0.3-3.8-0.5-5.7c1.3-4.2,3.7-7.2,8.4-7.7
	c1.1,1.2,2.2,1.2,3.4,0c4.3,0.8,7,3.3,7.7,7.7c-0.3,0.5-0.5,1-0.8,1.4c-0.4,0.2-0.9,0.3-1.3,0.5c-3.9-8-8-8.9-13.5-3
	C93.6,83.5,93.6,84.6,94.2,85.9z"/>
<path class="st2" d="M88.8,86.6c-2.9,0.5-5.8,0.8-9.1-0.7c3-3.4,6.2-2,9.1-1.9C88.8,84.9,88.8,85.8,88.8,86.6z"/>
<path class="st5" d="M45.2,67c-0.1-1-0.2-2-0.3-3.1c2.2-2.2,5-3.3,8-4.3c0,1,0.1,1.9,0.1,2.9C50.7,64.6,48.1,66,45.2,67z"/>
<path class="st2" d="M101.8,73.9c-2.7-3.5-2.7-5.9-0.1-8.8C103.5,68,103.2,70.4,101.8,73.9z"/>
<path class="st2" d="M85.5,70.6c4.5,0.5,6.1,2.6,7.4,6C88.4,77.2,87.2,74.5,85.5,70.6z"/>
<path class="st2" d="M87.3,100c-0.2-3.5,1.5-5.3,5-6.1C92.9,98.2,89.4,98.6,87.3,100z"/>
<path class="st2" d="M115.8,70.6c-0.8,3.9-2.6,5.6-5.9,6.5C109.9,73.3,112,71.8,115.8,70.6z"/>
<path class="st2" d="M88.8,86.6c0-0.8,0-1.7,0-2.5c0.8-0.2,1.6-0.4,2.4-0.5c0.2,1.9,0.3,3.8,0.5,5.7C90.7,88.4,89.7,87.5,88.8,86.6z
	"/>
<path class="st2" d="M108.4,85.6c0.4-0.2,0.9-0.3,1.3-0.5c0.3,0.1,0.6,0.1,0.9,0.2c0,0.5-0.1,1-0.1,1.6c-0.6,0.5-1.3,1-1.9,1.5
	C108.6,87.4,108.5,86.5,108.4,85.6z"/>
<path class="st2" d="M102.9,75.9c-1.1,1.2-2.3,1.2-3.4,0C100.6,75.4,101.7,75.4,102.9,75.9z"/>
<path class="st6" d="M76.5,49.9c0.4-0.2,0.7-0.4,1.1-0.6C77.4,50,77.1,50.2,76.5,49.9z"/>
<path class="st2" d="M110.7,85.3c-0.3-0.1-0.6-0.2-0.9-0.2c0.3-0.5,0.5-1,0.8-1.4C110.6,84.2,110.6,84.7,110.7,85.3z"/>
<path class="st6" d="M61,92.5c-0.5-0.1-1-0.3-1.5-0.4C60,92.2,60.5,92.4,61,92.5z"/>
<path class="st6" d="M59.3,91.8c-0.3-0.4-0.6-0.7-0.9-1.1C59,90.8,59.3,91.2,59.3,91.8z"/>
<g>
	<g>
		<g>
			<path class="st3" d="M159.3,95c-5-0.7-4-5.4-5-8.3c-6.7-18-18.4-31.5-34.4-41.9c-5.5-3.6-12.3-4.5-17.1-9.2
				c1.5-1.8,3-3.5,4.5-5.3c0.4,3.2,3,1.9,4.8,2.4c0.6,2.8,3.1,2.4,5,2.7c5.2,0.7,10.2,2.3,15.3,3.7c3.9,1.1,7.3,4,11.7,3.6
				c0.6,0,1.2,0,1.7,0c0.5,4.5,4.2,4.7,7.4,5.7c1.2-0.2,2.2,0,3,0.9c2.7,6.2,8.3,9.3,13.6,12.7c0.8,0.5,1.7,1,2.5,1.4
				c-1,2.1,0.3,3.6,1.5,5.1c19.2,24.6,24.5,52.1,16.8,82.3c-0.9,2.9-1.8,5.8-2.7,8.7c-0.3,0.5-0.6,1-0.9,1.5c-0.4,0.3-0.8,0.7-1.2,1
				c-1.9-2.4-2.5-5.9-6.4-6.7c-3.4,1-4.4,4-5.2,7.1c-3.7-3.2-7.5-6.3-11.2-9.5c-0.3-0.4-0.5-0.7-0.8-1.1c-0.8-10.7-0.4-21.4,2-31.9
				c1.5-1,1-2.5,0.8-3.8c1.8-8.4,2.1-17.3,9.1-23.3c0.9-3.6,0-6.6-1.4-9.5c0.4-1.7,0.8-3.4,1.2-5c0.4-0.7,0.3-1.2-0.7-1.2
				c-3.2,0-2.3,3.5-4.9,5.1c-2.9-0.2-5.2,2.2-7.1,4.4C160.1,89.6,161.6,92.7,159.3,95z"/>
		</g>
		<path class="st3" d="M181.2,167.7c-0.5,0.1-1.1,0.2-1.6,0.3c-0.7-0.7-1.4-1.5-2.1-2.2c1-2.3,6.6-2.6,3.1-7.1
			c-2.6,0.9-4.6,2.1-5.5,4.6c-0.3-0.3-0.6-0.6-0.9-0.9c0.8-3.1,1.8-6.1,5.2-7.1c3.9,0.8,4.5,4.3,6.4,6.7c0,0.4-0.1,0.8-0.1,1.1
			c-0.3,0.4-0.6,0.8-1,1.2l0,0.1C182.4,164.3,181.4,165.5,181.2,167.7z"/>
	</g>
</g>
<path class="st2" d="M185.7,163.1c0-0.4,0.1-0.8,0.1-1.1c0.4-0.3,0.8-0.7,1.2-1c0.2,1.3,0.8,2.2,2.3,2.2c0,1-0.4,1.7-1.2,2.2
	c-1,0-2,0.1-3.1,0.1c-0.1-0.4-0.1-0.8-0.2-1.2c0,0,0-0.1,0-0.1C185.1,163.9,185.4,163.5,185.7,163.1z"/>
<path class="st4" d="M164.2,119.9c-0.1-1.4-0.1-2.7,0.8-3.8C165.2,117.4,165.7,118.9,164.2,119.9z"/>
<path class="st4" d="M163,152.9c-0.6-0.1-1-0.4-0.8-1.1C162.5,152.2,162.7,152.6,163,152.9z"/>
<path class="st7" d="M173.9,78.2c-0.2-0.4-0.4-0.8-0.7-1.2C174.2,77,174.3,77.4,173.9,78.2z"/>
<path class="st8" d="M148.8,185.8c-0.8,0.1-1.6,0.1-2.4,0.2c-2.8-4.5-10.2-5.3-14.6-1.4c-1.5,1.4-2.9,3.1-3.9,4.8
	c-2.3,4.2-5.6,6.1-10.3,5.3c-5-0.9-9.2-4.9-10.4-10.5c9.5-1.7,19.2-3.7,19.6-15.7c-3.2-5.3-7.1-0.8-10.3-2.1c-0.2-0.3-0.3-0.7-0.5-1
	c0-0.8,0-1.6,0-2.3c0.1-0.4,0.2-0.7,0.2-1.1c2.1-5,7.3-8.6,7.1-14.8c2.1-0.2,4.2,0.1,6,1.3c11.2,7.3,21.8,15.2,29.2,26.8
	c1.5,0.2,3.2,0.4,4.6,0.5c1.9,1.7,1.9,3.3,1.4,5.3c-0.5,2.1-1.1,4.6,1.5,6c-0.2,0.6-0.5,1.2-0.7,1.8c-1.7-1.1-3.4,0-5.1,0.2
	c0,0,0.1,0.1,0.1,0.1c-1.6-3.4-4.5-3.4-7.6-3.1C151.3,186.1,150.1,185.9,148.8,185.8z"/>
<path class="st9" d="M70.9,178.4c-14-7.4-17.8-5.3-21.8,12.1c-7.2,4.5-16.5,1.8-19.7-5.9c-1.3-3.1-2.7-5.8-6.1-6.9
	c-0.4-0.2-0.9-0.4-1.3-0.5c-0.7-0.3-1.3-0.5-2.5-0.9c7.6-9.3,15.8-17.1,25.9-23.4c4.5,8.9,13,8.4,21,9c0.5,0,1.1,0.1,1.6,0.1
	c1.5,0,3.1-0.1,4.6-0.1c1.9-0.3,3.7-0.2,5.4,0.6c3.6,6.1,1.5,12.1-5.8,16.1C71.9,178.5,71.4,178.4,70.9,178.4z"/>
<path class="st4" d="M157,148.8c-1.5-0.4-2.8-0.9-3-2.8c-0.5-3.8-3.3-6.1-5.8-8.6c0.1-1.1,0.3-2.2,0.4-3.3c1.9,0.3,3.8,1.8,6.2,0.4
	c0-5.1,2.9-10,1.3-15.5c0-1.2,0-2.3,0-3.5c4.6-1.6,4.1-5.7,4.7-9.3c1.3-0.9,0.7-3.5,3.1-3.4c-3.3,15-5.5,30.1-5.5,45.4
	C158,148.5,157.5,148.6,157,148.8z"/>
<path class="st10" d="M156.2,115.6c0,1.2,0,2.3,0,3.5c-1.4-0.1-2.9-0.8-4.3,0.2c-2.9,3.7-5.9,7.5-8.6,11c1.5,2.6,3.9,2.6,5.4,3.9
	c-0.1,1.1-0.3,2.2-0.4,3.3c-3.8-1.3-7.6-1.8-11.4,0.3c-1.9,1.1-3.9,0.9-6.3-0.8c9.8-8.5,17.6-18.4,25.3-28.6
	c0.6,0.1,1.1,0.2,1.7,0.3C157.3,111,154.8,113,156.2,115.6z"/>
<path class="st10" d="M57.4,97.9c0,1.5,0,2.9,0,4.4c-9.1-0.9-13.3,3.7-11.7,12.6c-0.4,0.3-0.9,0.7-1.3,1c-1.9-3.6-3.3-7.4-4.4-11.8
	C45.9,101.8,51.3,98.9,57.4,97.9z"/>
<path class="st10" d="M62.9,115.3c0.9,1.2,1.8,2.4,2.7,3.6c-5.1,3.2-11,4.5-16.8,6.6c-2.7-2.9-3.3-6.4-4.4-9.7
	c0.4-0.3,0.9-0.7,1.3-1C51.1,122.3,56.7,122.4,62.9,115.3z"/>
<path class="st10" d="M66.9,138.3c-2.3,1.7-4.9,2.6-8,3.3c-1-2.7-2.1-5.2-3-7.7c1.7-2.1,3.8-2.4,5.7-2.9
	C65.1,132.2,64.4,136.5,66.9,138.3z"/>
<path class="st4" d="M66.9,138.3c-2.6-1.8-1.8-6.1-5.3-7.3c2.2-1.4,4.6-2.3,7.6-2.8c1.1,2.8,2.2,5.5,3.2,8
	C70.7,138.4,68.8,138.2,66.9,138.3z"/>
<path class="st1" d="M117.9,142.5c-3.8,0.4-7.1-1.2-10.7-2.1c-1.9-0.5-2.2-1.7-2.1-3.3C110.4,136.4,115.4,136.6,117.9,142.5z"/>
<path class="st10" d="M164,102.9c-2.4-0.1-1.7,2.5-3.1,3.4c-0.8,0-1.5,0.1-2.3,0.1c-0.5,0-0.9-0.1-1.4-0.1c1.8-3.1,3.6-6.3,5.5-9.6
	C166.4,98.7,165,100.8,164,102.9z"/>
<path class="st3" d="M175.1,163.3c0.9-2.5,3-3.6,5.5-4.6c3.5,4.5-2.1,4.8-3.1,7.1C176.3,165.4,175.4,164.6,175.1,163.3z"/>
<path class="st10" d="M62,126.8c-2.9,1.5-5.8,2.8-10.2,3.4c2.9-4.7,6.9-4.5,10.2-5.7C62,125.3,62,126.1,62,126.8z"/>
<path class="st4" d="M148.7,144.7c-2.7-1.3-5.5-2.6-8.2-3.9c4.3-1.9,6.9-0.2,9,2.7C149.2,143.9,149,144.3,148.7,144.7z"/>
<path class="st4" d="M50.7,96.2c-2.3,1.4-4.7,2.6-8.2,2.8c1.6-4.5,5.5-3.7,8.2-5C50.7,94.8,50.7,95.5,50.7,96.2z"/>
<path class="st6" d="M62,126.8c0-0.8,0-1.5-0.1-2.3c2-1.3,4-2.6,7.1-2.1C67.5,126,64.6,126.1,62,126.8z"/>
<path class="st4" d="M45,91.9c0.2-1.9,0.3-3.1,0.4-4.4c2.2,0.1,3.2,1.2,3.6,2.9C48.2,91.9,46.8,91.6,45,91.9z"/>
<path class="st1" d="M104,137.1c-2.2,1.7-4.5,1.6-6.7,0C99.5,136,101.7,136,104,137.1z"/>
<path class="st6" d="M50.7,96.2c0-0.7,0-1.4,0-2.1c1.7-1.1,3.3-2.3,5.7-0.6C54.9,95.8,52.9,96.1,50.7,96.2z"/>
<path class="st2" d="M160.2,189.2c1.7-0.2,3.4-1.3,5.1-0.2c0,0.2,0,0.4,0.1,0.6c0,0.7-0.1,1.4-0.1,2.1
	C162.9,192.2,161.3,191.3,160.2,189.2z"/>
<path class="st6" d="M166.4,90.6c1.3,0.1,2.4,0.7,3.3,1.7c-0.5,1.6-1.1,3.1-3.3,2.1C166.4,93.1,166.4,91.8,166.4,90.6z"/>
<path class="st2" d="M72.7,161.8c-1.5,0-3.1,0.1-4.6,0.1c0-0.3-0.1-0.6-0.2-0.8c0.2-0.5,0.4-1,0.5-1.5c1.1,0,2.2,0.1,3.4,0.1
	C72.1,160.4,72.4,161.1,72.7,161.8z"/>
<path class="st10" d="M166.4,90.6c0,1.3,0,2.5,0,3.8c-1.2-0.4-2.6-0.7-2.4-2.5C164.2,90.3,165.2,90.2,166.4,90.6z"/>
<path class="st4" d="M169.9,88.2c-1.2-0.3-2.7-0.1-3.1-1.8c1.5-1.6,2.6-0.5,3.7,0.5C170.3,87.3,170.1,87.8,169.9,88.2z"/>
<path class="st4" d="M157.2,106.3c0.5,0,0.9,0.1,1.4,0.1c-0.4,0.7-0.8,1.5-1.2,2.2c-0.6-0.1-1.1-0.2-1.7-0.3
	C156.2,107.7,156.7,107,157.2,106.3z"/>
<path class="st2" d="M190.2,188.1c-1.1,0-2.3,0-3.4-0.1C188,186.8,189.1,185.7,190.2,188.1z"/>
<path class="st5" d="M116.1,165.4c0.2,0.3,0.3,0.7,0.5,1C116,166.3,115.7,166.1,116.1,165.4z"/>
<path class="st5" d="M116.3,162c-0.1,0.4-0.2,0.7-0.2,1.1c0-0.3-0.1-0.6-0.1-0.8C116,162.2,116.2,162.1,116.3,162z"/>
<path class="st7" d="M68,161.1c0.1,0.3,0.1,0.5,0.2,0.8c-0.5,0-1.1-0.1-1.6-0.1C67,161.6,67.5,161.4,68,161.1z"/>
<path class="st7" d="M22.1,177.2c0.4,0.2,0.9,0.4,1.3,0.5C23,177.6,22.6,177.4,22.1,177.2z"/>
<path class="st7" d="M70.9,178.4c0.5,0,1,0,1.4,0C71.9,178.5,71.4,178.4,70.9,178.4z"/>
<path class="st6" d="M157,148.8c0.5-0.1,1-0.3,1.5-0.4C158.3,149.6,157.7,149.3,157,148.8z"/>
<path class="st5" d="M144.8,146.2c-0.4,0-0.7-0.1-1-0.3C144.3,145.4,144.6,145.6,144.8,146.2z"/>
<path class="st5" d="M142.6,145.5c-0.3-0.2-0.7-0.4-1-0.6C141.9,145.1,142.2,145.3,142.6,145.5z"/>
<path class="st7" d="M120.6,139.3c-0.1-0.1-0.2-0.3-0.3-0.4c0.2,0,0.5-0.1,0.7-0.1c0,0,0,0.4,0,0.4L120.6,139.3z"/>
<path class="st6" d="M125.6,135.9c0.5-0.2,1-0.5,1.4-0.7C126.6,135.5,126.1,135.7,125.6,135.9z"/>
<path class="st6" d="M75.5,134.8c0.4,0.3,0.8,0.7,1.2,1C76,135.9,75.7,135.5,75.5,134.8z"/>
<path class="st7" d="M169.9,88.2c0.2-0.4,0.4-0.9,0.6-1.3C171,87.7,170.9,88.2,169.9,88.2z"/>
<path class="st2" d="M84.9,148.9c1.4-4.7,5.4-4.5,9.1-4.3c3.9,0.2,7.5,1.6,9.1,5.5c1.6,3.9-0.5,6.1-4.2,6.8
	C93.5,158,87.3,154.4,84.9,148.9z M87.8,149.3c4.2,3.2,7.6,6.2,12.7,3.3C97.1,147.3,94.3,146.5,87.8,149.3z"/>
<path class="st11" d="M12.9,54.6c-0.2-0.4-0.4-0.8-0.6-1.3c0.3-0.1,0.6-0.2,0.9-0.2C13.1,53.6,13,54.1,12.9,54.6z"/>
<path class="st2" d="M152.6,186.2c3.1-0.4,6-0.3,7.6,3.1c-2.6,2-5.1,1.3-7.5-0.5C152.7,187.9,152.7,187.1,152.6,186.2z"/>
<path class="st2" d="M152.6,186.2c0.1,0.8,0.1,1.7,0.2,2.5c-2-0.1-3.7-0.6-4-2.9C150.1,185.9,151.3,186.1,152.6,186.2z"/>
<path class="st3" d="M184.7,164.4c0.1,0.4,0.1,0.8,0.2,1.2c-0.5,0.7-1,1.5-1.4,2.2c-0.8,0-1.5-0.1-2.3-0.1
	C181.4,165.5,182.4,164.3,184.7,164.4z"/>
<path class="st12" d="M108.4,85.6c-3.9-8-8-8.9-13.5-3c-0.2,1.1-0.5,2.2-0.7,3.3c0.6,1.9,1.1,3.7,1.7,5.6c0.9,0.5,1.9,1,2.8,1.5
	c1.2-0.8,2-2.1,3.4-2.6c1.7,0,5.8-0.8,6.6-2.2C109,87.5,108.5,86.5,108.4,85.6z"/>
<path class="st13" d="M94.2,85.9c-0.6-1.3-0.5-2.4,0.7-3.3C94.7,83.7,94.4,84.8,94.2,85.9z"/>
<path class="st2" d="M62.9,115.3c-6.2,7.1-11.9,6.9-17.2-0.5c-1.6-8.8,2.6-13.4,11.7-12.6C62.9,105.1,64.1,109.7,62.9,115.3z
	 M51.7,106.2c-4,3.6-4.4,7.2-1,9.7c2,1.5,4.1,1.8,6.4,0.5c2-1.1,3.1-2.8,3.1-5.1c0-3.2-1.6-5.3-4.9-6
	C53.9,105.1,52.6,104.8,51.7,106.2z"/>
<path class="st4" d="M185.7,163.1c-0.3,0.4-0.6,0.8-1,1.2C185.1,163.9,185.4,163.5,185.7,163.1z"/>
<path class="st9" d="M180.2,174.4c-0.5,0.9-1.1,1.8-1.8,2.4C179.1,176.1,179.6,175.2,180.2,174.4c-2.2-3.8-5.3-6.7-8.8-9.3
	c-7.4-8.4-16.9-13.8-26.6-18.8c-0.4,0-0.7-0.1-1-0.3c-0.4-0.1-0.8-0.3-1.2-0.4c-0.3-0.2-0.7-0.4-1-0.6c-6.8-2.4-13.3-5.5-20.6-6.2
	l0,0.4l-0.4,0.1c1,2.6,2.7,5,2.8,8c2.1-0.2,4.2,0.1,6,1.3c11.2,7.3,21.8,15.2,29.2,26.8c1.5,0.2,3.2,0.4,4.6,0.5
	c1.9,1.7,1.9,3.3,1.4,5.3c-0.5,2.1-1.1,4.6,1.5,6c0,0,0,0,0,0c-0.2,0.6-0.5,1.2-0.7,1.8c0,0.2,0,0.4,0.1,0.6
	c0.8-0.2,1.6-0.5,2.4-0.7c7,0.2,13.4-1.6,19.8-5.8C184.6,180.2,183.4,176.5,180.2,174.4z M166,187.1C166,187.1,166,187.1,166,187.1
	L166,187.1c0.4-0.4,0.7-0.6,1-0.5C166.8,186.5,166.4,186.7,166,187.1z M175.5,177.9L175.5,177.9c-1,0.1-1.8,0.3-2.4,0.9
	C173.7,178.2,174.5,178,175.5,177.9z M172.8,179.5c-0.1,0.2-0.1,0.4-0.1,0.6C172.7,179.8,172.7,179.6,172.8,179.5z M175.5,177.9
	L175.5,177.9C175.5,177.9,175.5,177.9,175.5,177.9z"/>
<path class="st2" d="M148.6,134.2c-1.5-1.3-3.9-1.3-5.4-3.9c2.8-3.5,5.7-7.3,8.6-11c1.4-1,2.9-0.3,4.3-0.2
	c1.6,5.5-1.3,10.4-1.3,15.5C152.4,136,150.6,134.4,148.6,134.2z M151.8,131.3c1-2.2,1.1-4.1,0.5-6.6c-2.1,1.7-3.6,2.9-4,5
	C149.2,130.7,150,131.3,151.8,131.3z"/>
<path class="st2" d="M157.4,108.6c0.4-0.7,0.8-1.5,1.2-2.2c0.8,0,1.5-0.1,2.3-0.1c-0.6,3.6-0.1,7.8-4.7,9.3
	C154.8,113,157.3,111,157.4,108.6z"/>
<path class="st14" d="M87.8,149.3c6.5-2.8,9.3-2,12.7,3.3C95.4,155.5,92,152.5,87.8,149.3z"/>
<path class="st10" d="M55.3,105.4c-0.1,0.4-0.2,0.9-0.3,1.3c-0.8,0-1.5,0-2.3,0c-0.3-0.2-0.6-0.4-0.9-0.6
	C52.6,104.8,53.9,105.1,55.3,105.4z"/>
<path class="st4" d="M151.8,131.3c-1.8,0-2.7-0.6-3.5-1.6c0.4-2.1,1.9-3.3,4-5C153,127.2,152.8,129.1,151.8,131.3z"/>
<path class="st2" d="M52.6,106.8c0.8,0,1.5,0,2.3,0c0.5,1.4,1,2.8,1.4,4c-1,2-2.6,2.1-4.3,2.3C51.2,110.6,52.6,108.7,52.6,106.8z"/>
<path class="st2" d="M173.9,78.2c-0.4,1.6-0.8,3.3-1.2,5c1.3,2.9,2.2,5.9,1.4,9.5c-7.1,6-7.3,15-9.1,23.3c-0.9,1.1-0.9,2.5-0.8,3.8
	c-2.4,10.5-2.7,21.2-2,31.9c-0.2,0.7,0.2,1,0.8,1.1c3.7,3.2,7.5,6.3,11.2,9.5c0.3,0.3,0.6,0.6,0.9,0.9c0.3,1.4,1.2,2.1,2.4,2.5
	c0.7,0.7,1.4,1.5,2.1,2.2c0.9,2.4,2.8,3.4,5.2,3.8c-0.4,3.9,3.1,5.8,4.5,8.7c1.8,3.6,5.4,6.3,5.3,10.8c-2.8,0.9-3.1-1.8-4.4-3.1
	c-1.1-2.4-2.2-1.3-3.4-0.1c-6.1,2.5-12.5,4.2-19.2,4.4c-0.8-0.3-1.6-0.5-2.4-0.8c0-0.7,0.1-1.4,0.1-2.1c0.8-0.2,1.6-0.5,2.4-0.7
	c7,0.2,13.4-1.6,19.8-5.8c-3-3-4.1-6.7-7.4-8.8c-2.2-3.8-5.3-6.7-8.7-9.3c-7.4-8.4-16.9-13.8-26.6-18.8c-0.2-0.6-0.5-0.9-1-0.3
	c-0.4-0.1-0.8-0.3-1.2-0.4c-0.3-0.2-0.7-0.4-1-0.6c-6.8-2.4-13.3-5.5-20.6-6.2c-0.2,0-0.5,0.1-0.7,0.1c0.1,0.1,0.2,0.3,0.3,0.4
	c1,2.6,2.7,5,2.8,8c0.3,6.2-5,9.7-7.1,14.8c-0.1,0.1-0.4,0.2-0.4,0.3c0,0.3,0.1,0.6,0.1,0.8c0,0.8,0,1.6,0,2.3
	c-0.4,0.6-0.1,0.9,0.5,1c3.2,1.3,7.1-3.2,10.3,2.1c-0.4,12-10,14-19.6,15.7c1.2,5.6,5.3,9.6,10.4,10.5c4.7,0.8,8-1.1,10.3-5.3
	c1-1.8,2.3-3.5,3.9-4.8c4.3-3.9,11.7-3.1,14.6,1.4c-8.5-2-14.7,0.9-18.5,8.8c-0.3,0.6-0.9,1.1-1.4,1.7c-4.9,2.3-9.7,1.4-14.5-0.1
	c-3.8-3.8-9.7-6.5-7.9-13.1c3.3-4.2,8.2-2.4,11.8-4.3c3.8-2,7.6-3.9,7.3-9.3c-9.6,0.7-12.7-3.2-8.9-10.8c1-2,2.6-3.7,3.8-5.6
	c2.3-3.6,3.1-7.2-0.1-10.8c-2.5-5.9-7.4-6.1-12.7-5.4c-0.4,0-0.8,0-1.2,0c-2.2-0.1-4.2,0.1-6.7,0c-15.7-0.4-30.1,4.2-43.9,11.2
	c-2.1,1-3.8,2.4-3.6,5.3c2.2,3.2,5.9,3.7,9.3,4.6c3.1,0.8,6.5-0.3,9.4,1.4c-0.2,0.5-0.4,1-0.5,1.5c-0.5,0.2-1,0.5-1.4,0.7
	c-8-0.6-16.5-0.1-21-9c-10.1,6.3-18.4,14.1-25.9,23.4c1.2,0.4,1.8,0.7,2.5,0.9c0.4,0.2,0.9,0.4,1.3,0.5c3.4,1.1,4.8,3.8,6.1,6.9
	c3.2,7.7,12.5,10.4,19.7,5.9c3.9-17.4,7.7-19.5,21.8-12.1c0.5,0,1,0,1.4,0.1c7.2-3.9,9.4-9.9,5.8-16.1c-1.7-0.8-3.5-0.9-5.4-0.6
	c-0.3-0.7-0.6-1.4-0.9-2.2c3.9-2.7,7.2-1.3,9.8,1.8c3.3,3.9,1.9,11.2-2.8,16.5c-3.6,4-7.6,4.9-12.5,1.9c-6.9-4.2-12.6-1.7-13,6.3
	c-0.3,5.5-2.7,8.3-7.3,10c-2.2,0-4.5,0-6.7,0c-5.3-2-10.6-4-12.7-10c-1-3.1-2.5-5.5-6.1-5.6c-3.5-0.1-5.7,2-7.5,4.9
	c-1.6,2.6-2,6.2-5.7,7.1c-1.7-2-0.1-3.5,0.9-5c3.5-5.4,7-10.8,10.8-16.6c-4.3-8.9-8-18.6-9.7-28.9C5.2,117.8,9.8,95.2,23,74.4
	c1.1-1.8,1.9-4.3,5-3.8c0.3,2.8-1.7,4.5-3,6.5c-14.8,25.1-18.3,51.4-8.4,79.1c0.9,4.3,2.6,8.1,5.3,12.2
	c9.6-10.8,21.1-18.8,33.6-25.3c-1.4-3.9-1.4-7.7-5.1-9.6c-1.3-3.6-1.3-3.6-5-5.3c-3-8.1-6.1-16.4-9.2-24.7
	c6.6-9.2,7.4-19.2,4.4-30.2c4.3,7.9,9.1,14.6,17.7,17.3c0.3,0.4,0.6,0.7,0.9,1.1c0,0,0.3,0.2,0.3,0.2c0.5,0.1,1,0.3,1.5,0.4
	c4.4-0.3,4,3,4.3,5.8c-2.2,1-3-1.5-4.7-2c-1,0.5-2.1,1.1-3.2,1.6c-6.1,1-11.5,3.9-17.3,6.2c1.1,4.4,2.5,8.2,4.4,11.8
	c1.1,3.3,1.7,6.8,4.4,9.7c5.7-2.1,11.6-3.4,16.8-6.6c1.7-0.1,3.4-0.2,4.1-2.2c-1.3-3.2-2.8-6.4-3.8-9.8c-0.6-2.1-2.9-4.3-0.4-6.6
	c4.9,4.8,4.9,11.8,8.3,17.3c-1.7,2.8-1.8,5.4-0.5,8c-1,3.5,0.8,6.3,2.2,9.2c0.1,0.7,0.5,1.1,1.2,1c16.3-3.1,32.6-3.1,48.9,0.1
	c0.5-0.2,1-0.5,1.4-0.7c3.5-2.3,6.4-5.1,8.9-8.3c9.5-9.4,17.5-19.8,23.3-31.8c2.3-2.3,0.8-5.4,2-8.5c1.8-2.3,4.2-4.6,7.1-4.4
	c2.6-1.7,1.7-5.2,4.9-5.1C173.5,77.4,173.7,77.8,173.9,78.2z M170.5,86.9c-1.1-1-2.2-2.1-3.7-0.5c0.4,1.8,1.9,1.5,3.1,1.8
	C170.9,88.2,171,87.7,170.5,86.9z M166.4,90.6c-1.2-0.4-2.2-0.3-2.4,1.3c-0.2,1.8,1.2,2.1,2.4,2.5c2.2,1,2.8-0.5,3.3-2.1
	C168.8,91.3,167.7,90.7,166.4,90.6z M50.7,94.1c-2.7,1.3-6.5,0.5-8.2,5c3.5-0.2,5.9-1.4,8.2-2.8c2.2-0.2,4.2-0.5,5.7-2.7
	C54,91.9,52.4,93,50.7,94.1z M62,126.8c2.5-0.7,5.4-0.9,7-4.4c-3.1-0.5-5.1,0.8-7.1,2.1c-3.3,1.2-7.2,1-10.2,5.7
	C56.2,129.7,59.1,128.3,62,126.8z M157.2,106.3c-0.5,0.7-1,1.3-1.5,2c-7.6,10.1-15.5,20.1-25.3,28.6c2.4,1.8,4.4,1.9,6.3,0.8
	c3.8-2.1,7.6-1.6,11.4-0.3c2.5,2.5,5.3,4.8,5.8,8.6c0.2,1.8,1.5,2.4,3,2.8c0.7,0.6,1.3,0.8,1.5-0.4c-0.1-15.4,2.2-30.5,5.5-45.4
	c1-2.1,2.5-4.2-1.3-6.2C160.8,100.1,159,103.2,157.2,106.3z M61.6,131c-2,0.5-4,0.8-5.7,2.9c1,2.5,2,5,3,7.7c3.1-0.7,5.7-1.6,8-3.3
	c1.8-0.1,3.8,0.1,5.4-2.1c-1-2.5-2.1-5.2-3.2-8C66.3,128.8,63.9,129.6,61.6,131z M148.7,144.7c0.3-0.4,0.5-0.8,0.8-1.2
	c-2.1-2.9-4.7-4.6-9-2.7C143.2,142.1,146,143.4,148.7,144.7z M45,91.9c1.8-0.3,3.2,0,4-1.5c-0.4-1.7-1.4-2.8-3.6-2.9
	C45.3,88.8,45.2,90,45,91.9z"/>
</svg>
