<?xml version="1.0" encoding="utf-8"?>
<!-- Generator: Adobe Illustrator 27.4.1, SVG Export Plug-In . SVG Version: 6.00 Build 0)  -->
<svg version="1.1" id="Layer_1" xmlns="http://www.w3.org/2000/svg" xmlns:xlink="http://www.w3.org/1999/xlink" x="0px" y="0px"
	 viewBox="0 0 200 200" style="enable-background:new 0 0 200 200;" xml:space="preserve">
<style type="text/css">
	.st0{fill:#FFCF33;}
	.st1{fill:#33AB9F;}
	.st2{fill:#009688;}
	.st3{fill:#5393FF;}
	.st4{fill:#2979FF;}
	.st5{fill:#FFC400;}
	.st6{fill:#3E453D;}
</style>
<g>
	<path class="st0" d="M86.4,105.6c0.2,1.3,0.9,2.2,1.6,3.2C87.2,107.9,86.6,106.9,86.4,105.6l-0.1-0.4c-0.4-0.2-0.9-0.3-1.3-0.5
		c-6.4-1.1-11.6,1-15.4,6.2c-0.8,1.1-1.7,2-3.1,1.9c-0.1,1.9-0.1,3.8-0.2,5.7c0.7,2.7,1.4,5.5,2.1,8.2c0.5,0.1,0.7,0.4,0.4,0.9
		c3,6.7,6.4,13.2,10.9,19.1c0.5,1.2,0.8,2.4,2.2,3c4.1-2.5,3.9-8.7,9-10.3c0-1.5-0.4-3.1,1.4-4c1.4-4.1,2.9-8.2,4.3-12.3
		c0.1-0.4,0.3-0.8,0.4-1.3C97.4,113.1,93.8,107.7,86.4,105.6z M89.2,110.1c-0.3-0.3-0.6-0.7-0.9-1C88.6,109.5,88.9,109.8,89.2,110.1
		z M79.3,126.7c-3.2-1.3-4.8-4.1-4.5-7.6c0.3-3.5,2.2-5.9,5.8-6.5c3.8-0.6,7,0.2,8.4,4.5c1.4,2.1,1.5,4.2-0.3,6.3
		C86.6,127.1,83.3,128.3,79.3,126.7z"/>
	<path class="st0" d="M51.8,72.6c-1.5-6.2-4.7-10.9-11.5-12.1c-10.5-3.9-23.3,8-17.5,20.9c0.2,0.4,0.4,0.9,0.6,1.3
		c2.9,6.3,6.2,12.4,10.2,18c0.6,1.7,1.3,3.4,3.8,4.3c5.8-10,13.2-19.2,14.5-31.3C51.7,73.3,51.7,73,51.8,72.6z M29.6,73.5
		c0.5-3.5,2.3-6.1,6.3-6.4c0.3-0.3,0.7-0.3,1-0.1l0-0.4c0.4-0.5,0.8-0.5,1.2,0.1c0.4,0.2,0.8,0.4,1.2,0.6c0.4,0.2,0.8,0.4,1.3,0.6
		c1.8,0.6,2.8,1.9,3.4,3.6c0.1,0.4,0.3,0.7,0.4,1.1c1,4.6-1.2,7.4-5.1,9.2c0-0.3-4.5-0.4-4.5,0C31.3,80.1,29.1,77.4,29.6,73.5z"/>
	<path class="st0" d="M178.6,47.9c-0.6-5.7-3.9-9.7-8.5-12.8c-1.3-0.2-2.6-0.3-3.9-0.5c-6.4-1.7-11.4,0.7-15.2,5.7
		c-3.6,4.7-3.3,10-1.6,15.4c0.3,0.8,0.7,1.5,1,2.2c3.3,6.1,6.1,12.4,10.4,17.9c0.5,1.5,1.2,2.7,3.1,3.3c4.6-6.8,8.8-13.9,12.4-21.4
		c0-1.2-0.2,0.4,1.1-3.1c0.1-0.4,0.2-0.8,0.3-1.2c0.1-0.4,0.3-0.8,0.4-1.1c0.1-0.8,0.2-1.5,0.4-2.3
		C177.7,49.3,177.7,48.6,178.6,47.9z M156.5,49c-0.4-1.2-0.4-2.3,0.5-3.3c1.5-4,4.8-5.1,8.5-4.4c2.9,0.5,4.9,2.5,5.5,5.6
		c0.9,4.3-1.1,7.1-4.7,9.1c-0.3,0.5-0.6,0.6-1.1,0.2C160.4,56.1,156.6,54.8,156.5,49z"/>
</g>
<g>
	<path class="st1" d="M176.7,74.8c-1.5-0.4-3.2,0.5-4.6-0.5c-0.5-0.3-1.1-0.2-1.4,0.3c-2.2,3-3.2,6.9-6.9,9.4
		c-0.5,0.3-1.1,0.2-1.5-0.2c-6.1-7.7-11.2-15.8-14.3-25.2c-1-0.7-1.8-1.1-2.8-1.8c-0.5,0-1,0.1-1.5,0.1c0,0,0,0,0,0
		c-0.4-0.1-0.7-0.1-1.1-0.1c-10.4,11.3-22.7,18-40,15.7c-1.1,0.5-2.1,3.5-3.2,4c-2.2,3.3-2.4,7.7-5.6,10.6c-0.4,0.4-1.1,0.3-1.4-0.1
		c-4.2-4.6-6.6-10.1-9.7-15.1c-0.2-0.3-0.5-0.5-0.8-0.5c-1.3-0.1-2.8-1.4-2.9-1c-1.2,0.1-2.3,0.2-3.5,0.2c-0.2,0-0.4,0.1-0.6,0.2
		c-0.3,0.2-0.5,0.2-0.8,0c-0.2-0.1-0.4-0.2-0.6-0.2c-3.1-0.2-5.9,1.1-8.7,2.2c-1.4,0.6-2.8,0.2-4.3,0c-0.5-0.1-5.1,5.1-6,5.4
		c-0.6,0.5-0.3,2.2-0.9,2.8c-3.9,10.3-9.3,19.7-16,28.7c-0.3,0.5-1,0.6-1.5,0.2c-3-2.2-5.4-8.5-7.3-10.9c-2-0.5-2.1,2.2-4.1,1.7
		c-5.6,2.2-11,4.7-14.6,9.8c-4.5,6.5-5.9,13.6-3.5,21.3c0.6,1.9,1.7,3.8,0.8,5.9c0.4,0.1,3.3,4.2,3.5,4.5c5.8,2.7,11.2,5.9,16,10.1
		c0,0,0,0,0.1,0.1l0.8,0.8c4.1,2.1,4.2,5.6,3.2,9.4c-0.6,2.2-1.5,4.4-2.3,6.5c0,0.1-0.1,0.2-0.2,0.3c-1.5,1.7-2.7,3.6-3.1,6.4
		c0,0.2,0,0.5,0.1,0.7c3.2,6.1,8.9,9.8,15.6,12.1c0,0,0,0,0,0c0.1,0.3,0.2,0.5,0.3,0.8c0.7,0.2,7.2,2.5,8.1,2.5
		c0,0.6,32.7-9.8,33.7-10.2c1.8-0.7,3.1-2,4.3-3.5c8.8-10.8,20.3-13.1,33.3-10.5c0,0,0.1,0,0.1,0c0.4,0.1,0.8,0.3,1.3,0.4
		c5.1,1.6,10.3,3,15.4,4.9c22.6,8.1,32.7-7.8,30.3-26c0-0.1,0-0.2-0.1-0.3c-0.1-0.3-0.3-0.7-0.4-1c0,0,0-0.1,0-0.1
		c-1.7-7.1-4.4-14-3.6-21.6c0.2-2.2,0.1-4.6,2-6.2c0.2-0.2,0.3-0.4,0.4-0.7c0.1-0.9,0.5-1.4,1.3-1.6c0.4-0.1,0.7-0.4,0.8-0.8
		c0.4-1.9,1.8-3,3.4-4c0,0,0.1-0.1,0.1-0.1c0.8-0.7,1.6-1.4,2.4-2.1c0,0,0,0,0.1-0.1c1.5-1.1,3-2.1,4.8-2.3c0.4-0.1,0.7-0.4,0.8-0.8
		c0.4-1.9,2.2-2.7,3.5-4c3.1-3,6.1-5.9,7.8-10C195,82,188.7,74.8,176.7,74.8z M33.9,120.9c-0.1,0.7-0.9,1.1-1.6,0.8
		c-1.4-0.8-1.5-2.7-3-2.6c-2.3-0.3-2.2,2.4-3.8,3.1c-0.4,0.2-0.8,0-1.1-0.2c-1.6-1.5-0.5-3.1,0.7-4.5c1.6-1.9,3.7-2.3,6-1.3
		C33.5,117.1,34.2,118.7,33.9,120.9z M156.2,84.1c-5.4-6.7-8.9-14.4-11.3-22.6C147.3,69.8,150.8,77.4,156.2,84.1z M150.4,92.9
		c-1.7-0.2-1.8,1.6-2.6,2.6c-0.5,0.6-1.4,0.5-1.8-0.2c-1.1-2.3-0.8-2.6,2-5.3c0.1-0.1,0.3-0.2,0.4-0.3c1.9-0.5,3.5,0.4,5.1,0.9
		c0.2,0.1,0.4,0.2,0.5,0.4c0.9,1.4,1.7,2.7,0.9,4.2c-0.2,0.5-0.8,0.7-1.3,0.5C152.3,95.2,152.4,92.6,150.4,92.9z M150.7,81
		c0.3,0.1,0.6,0.3,0.8,0.6c0.6,1.2,0.1,1.9-0.9,2.5c-0.4,0.5-0.7,0.5-1.1,0.1c-2.5-1-5.3,0.9-8.3-0.2c-0.9-0.3-0.9-1.6,0-1.9
		C144.4,80.6,147.6,80.5,150.7,81z M141.5,114.8c4.2,3,5.9,7.4,4.6,12.4c-2,7.4-6,13.9-11.1,20.9c-0.4,0.6-1.3,0.6-1.7,0
		c-5.6-7.4-10.1-14.5-11.7-22.8c-1-4.7,2-8.8,6.1-11.2C132.2,111.6,137.1,111.8,141.5,114.8z M128.6,87.2c-2.9,1.5-5.7,2.5-8.8,3.4
		c-1.1,0.3-1.9-1-1-1.8c2.4-2.3,5.8-3.6,9.3-3.6C129.1,85.2,129.5,86.7,128.6,87.2z M115.9,103.3c1.6,0.4,1.9,2.5,3.7,2.6
		c0.3,0,0.6-0.1,0.9-0.3c0.6-0.6,1.2-1.3,2.1-2.3c0.5-0.6,1.5-0.4,1.8,0.4c0.8,2.3-0.2,3.7-1.8,4.9c-1.8,1.3-3.8,1.5-5.7,0.1
		c-1.7-1.2-2.8-2.7-2.2-4.6C114.8,103.5,115.4,103.2,115.9,103.3z M113.4,141.4c1.4,0.6,1.1,1.5,0.5,2.5c-2.9,5.2-5.5,5.5-9.4,1.3
		c-0.3-1-0.5-1.8-0.8-2.8c0.2-0.5,0.5-0.9,1.2-1c2.2-0.1,1.5,2.9,3.5,3.1C111.2,145.4,110.6,140.5,113.4,141.4z M97.2,102.7
		c2.5-2.4,4.9-4.9,8.1-6.4c1-0.5,1.9,0.7,1.3,1.6c-2.3,3.2-4.8,6-9.4,6.4C96.5,103.7,96.6,103.2,97.2,102.7z M78.8,101.7
		c2.4-0.3,5,0,7.5,0.1c0.1,0,0.3,0,0.4,0.1l1.1,0.5c0,0,0.1,0,0.1,0.1l1.7,0.5c0.3,0.2,0.7,0.3,1,0.5c11.6,7.4,12.9,18.7,3.7,32.1
		c-0.4,0.6-0.7,0.6-1.1,0c-0.2-0.2-0.5-0.3-0.8-0.3c-1.8,0.9-1.4,2.5-1.4,4c-0.2,4.3-3.5,10.2-8.5,15c-0.4,0.4-1,0.4-1.4,0
		c-3.3-2.8-4.9-6.9-7.1-10.4c-4-6.1-7.3-12.5-9.4-19.5c-0.6-1.9-2.5-4.8,1-5.8c0.4-0.1,0.7-0.5,0.8-1c0-1.6,0.1-3.2,0.1-4.9
		C67,107.1,71.7,102.7,78.8,101.7z M61.1,90.1c0.2-0.5,0.7-0.8,1.2-0.7c1.6,0.3,1.7,2.5,3.3,2.5c1.8,0.5,2.3-1.4,3.6-2.1
		c0.6-0.3,1.3,0,1.5,0.7c0.6,2.5-0.7,3.9-3.2,4.8c-0.8,0.9-1.6,1-2.5,0.1C62.2,94.4,60.1,93.1,61.1,90.1z M47,170.6
		c0-0.1-0.1-0.2-0.2-0.3c-3.2-3.4-5.5-7.4-6.8-11.9c-0.3-0.1-0.5-0.2-0.8-0.3c-1.4-4-3.8-7.8-1-12.1c0.1-0.1,0.1-0.3,0.2-0.4
		c0.2-1.4,0.6-2.6,2-3.2c5-5,10.7-5.8,16.1-2.5c4.9,3.1,6.5,8.5,4.6,14.7c-1.8,6-5.1,11.2-8.4,16.4c-0.9,1.4-1.8,2.8-3.6,2.9
		c-0.4,0-0.9-0.3-1-0.7C47.6,172.2,47.3,171.4,47,170.6z M154.2,152.9c-0.9,0.1-1.4-0.5-1.8-1.2c-0.5-0.8-1.7-0.6-1.9,0.3
		c-0.2,0.9-0.8,1.5-2.3,1.4c0,0-0.2-0.2-0.2-0.2c0.3,4.2-3.3,4.3-5.5,5.7c2-1.3,8.3-0.3,8.8-3.3c0.1-0.6,1.5-6.5,0.9-6.6
		c-2.8-0.2-7.4,2-6.3-0.1c1.2-2.2,3.4-2.4,5.5-2.5c0.2,0,0.4,0,0.5,0.1c2.3,1.2,4,2.8,3.3,5.5C155,152.6,154.6,152.9,154.2,152.9z"
		/>
	<path class="st1" d="M183.2,124.1c1.3,0.6,2.6,1.2,3.9,1.8c1.2,4.2-1.4,6.1-4.8,7.6c-3.8-2.4-4.7-5.5-2.7-9.5
		C180.8,124,182,124,183.2,124.1z"/>
	<path class="st1" d="M86.8,118.5c-0.4,3.9-2.1,6.6-5.7,5.4c-3.6-1.2-3.5-4.3-1.8-7.3C82.4,114.4,84.8,115.4,86.8,118.5z"/>
</g>
<path class="st2" d="M151.6,146.4c1.6-9.5,0.1-19.2,1.2-28.7c0.7-6.4,4.5-10.5,9.8-13.3c3.9-2.1,8.2-3.4,12.3-5.3
	c4.5-2.1,7.6-5.2,6.9-10.7c-7.2-3.7-13.8,1-20.6,0.9c-9.2-8.7-14.3-21.2-17.2-33.2c1-0.6,1.7-0.1,2.7-0.7c0.6,0.5,0.7,2.2,1.3,2.8
	c3.2,9.8,8.6,18.2,15,26.3c4.8-2.8,5.6-7.6,8.5-10.9c1.4,1.9,3.5,0.7,5.3,1.1c12,0,18.3,7.3,14.5,16.6c-1.7,4.1-4.7,7-7.8,10
	c-1.4,1.4-3.5,2.3-3.6,4.7c-2.2,0.1-3.9,1.2-5.5,2.4c-0.8,0.7-1.6,1.4-2.5,2.2c-1.5,0.9-2.9,1.9-3.4,3.6c-0.2,0.7-0.7,1.1-1.3,1.4
	c-0.6,0.3-0.9,0.9-0.8,1.9c-2.3,1.6-2.1,4.1-2.4,6.5c-0.8,7.5,1.9,14.5,3.6,21.6c0.2,0.4,0.3,0.8,0.5,1.3
	c2.5,18.2-7.6,34.2-30.2,26.1c-5.1-1.8-10.3-3.2-15.4-4.9c-0.4-0.2-0.9-0.3-1.3-0.5c-13.1-2.6-24.6-0.3-33.4,10.5
	c-1.2,1.5-2.5,2.8-4.3,3.5c1.2,1-35.9,14.8-36.3,8.5c2.8-6.6,7.5-12,14.2-13.8c5.9-1.5,11-3.7,15-7.8c13.9-14.2,30.9-15.8,49-12.2
	c5.5,1.1,16.7,2.9,16.7,2.9s14.9-2.4,12.9-6.5C156.2,149.5,154.3,147.8,151.6,146.4z"/>
<g>
	<path class="st3" d="M96.5,56c-3.9-2-7.3-1-10.1,2c-2.9,3.1-3,6.8-1.3,10.5c1.7,3.7,3.3,7.5,6,10.7c0.4,1.2,0.7,2.5,2.6,3
		c3.5-4.7,6.6-9.7,8.5-15.4C103.8,61.9,101.9,58.3,96.5,56z M95.4,69.6L95.4,69.6c-3.2,0.2-6.1-0.3-6.8-4c-0.6-3.4,1-5.7,4.6-6.3
		c0.7-0.1,1.5-0.1,2.2-0.2c0.1,0.3,0.2,0.5,0.3,0.8C100.1,63.8,100,65.5,95.4,69.6z"/>
	<path class="st3" d="M142.9,122c-1.3-3.1-3-5.8-7-5.7c-8.5-1-13.2,4.7-10.1,12.4c1.4,3.6,2.9,7.2,5.4,10.3l0,0
		c0.5,1.8,1.3,3.3,3.4,4c4-5.8,7.5-11.6,8.9-18.5C142.8,123.8,142.6,122.9,142.9,122z M132.1,138.5c0.2-0.1,0.4-0.3,0.6-0.4
		C132.6,138.3,132.4,138.4,132.1,138.5z M133.6,137.4c0.2-0.2,0.4-0.4,0.5-0.6C134,137,133.8,137.2,133.6,137.4z M137.1,130.1
		L137.1,130.1c-4.2,0.5-8,0-7.8-5.3c0.2-4.7,3.6-5.6,7.7-4.6l0,0C140.5,123.5,140.5,126.8,137.1,130.1z"/>
	<path class="st3" d="M52.8,142.1c-0.1,1.4-0.1,2.7-0.2,4.1c0.5,0.9,0.9,1.9,1.4,2.8c2.2,2.7,0.3,4.6-1.4,6.5
		c-0.6,1.8-0.8,3.8-1.7,5.4c-0.2,0.4-0.4,0.8-0.7,1.1c0.3-0.3,0.5-0.7,0.7-1.1c0.8-1.6,1.1-3.6,1.7-5.4c-3.4,0.9-6.4,0.6-7.7-3.1
		c-1.1-3.1,0.4-5.3,3.5-6.3c1.4-0.9,2.8-0.3,4.2,0C52.7,144.8,52.8,143.4,52.8,142.1c-4.6-2.5-8,0-11.3,2.7
		c-0.2,0.3-0.4,0.6-0.6,0.9c-0.9,3.7-0.5,7.2,1,10.6c0.3,0.6,0.6,1.3,0.9,1.9c1.1,1.8,2.2,3.6,3.3,5.5c0.7,1.5,1.4,3,2.1,4.5
		c0.7-0.1,1.7,0.1,2-0.3c3.6-4.5,6.9-9.5,8.2-15.1C59.5,148.2,58.5,143.6,52.8,142.1z"/>
</g>
<g>
	<path class="st4" d="M91.1,79.2c2.9-2.5,4.4-5.7,4.3-9.6c4.6-4.1,4.7-5.8,0.3-9.7c-0.1-0.3-0.2-0.6-0.3-0.8c0.4-1,0.7-2,1.1-3
		c5.4,2.3,7.3,5.9,5.7,10.8c-1.9,5.7-5,10.7-8.5,15.4C91.9,81.7,91.5,80.5,91.1,79.2z"/>
	<path class="st4" d="M137,120.2c-0.3-1.3-0.7-2.6-1-3.9c3.9-0.1,5.6,2.6,7,5.7c0,0,0.6,2.5,0.6,2.5c-1.4,6.9-4.9,12.8-8.9,18.5
		c-2.1-0.6-2.8-2.2-3.4-4c3.8-1.8,5.1-5.2,5.9-8.9C140.5,126.8,140.5,123.5,137,120.2z"/>
	<path class="st4" d="M52.7,146.1c0.1-1.4,0.1-2.7,0.2-4.1c5.7,1.5,6.6,6.1,5.6,10.6c-1.3,5.6-4.5,10.6-8.2,15.1
		c-0.3,0.4-1.3,0.2-2,0.3c-0.7-1.5-1.4-3-2.1-4.5c5.4-0.1,5.4-4.6,6.5-8.2c1.7-1.9,3.5-3.8,1.4-6.5C53.6,148,53.1,147.1,52.7,146.1z
		"/>
</g>
<g>
	<path class="st5" d="M79.7,146.8c5.1-7.5,9.7-15.2,12.9-23.8c1.5-4.1,0.4-7.9-2.2-11.5c-1.4-1.9-3.6-3.3-4-5.9
		c7.4,2.1,11,7.5,10.7,16.2c-0.1,0.4-0.3,0.8-0.4,1.3c-1.4,4.1-2.9,8.2-4.3,12.3c-1.8,0.9-1.4,2.5-1.4,4c-5.1,1.6-4.9,7.9-9,10.3
		C80.6,149.2,80.2,148,79.7,146.8z"/>
	<path class="st5" d="M33.6,100.7c3.7-0.2,3.8-3.7,5.3-5.9c3.3-5,6.2-10.2,7.7-16c1.3-5.2,1.1-10.4-3.6-14.3c-1.3-1.1-2.6-2.1-2.7-4
		c6.8,1.3,10,5.9,11.5,12.1c-0.2,0.4-0.1,0.7,0.1,1C50.6,85.8,43.2,95,37.4,105C34.9,104.1,34.3,102.4,33.6,100.7z"/>
	<path class="st5" d="M160.9,75.9c6.2-7.8,11-16.3,13.1-26.1c1.1-5.3-2.3-8.8-5.3-12.4c-0.8-0.9-2.4-1.2-2.4-2.8
		c1.3,0.2,2.6,0.3,3.9,0.5c4.6,3.1,7.9,7.1,8.5,12.8c0.6,0,0.6,2.1,0,2.1c-0.1,0.8-0.3,1.5-0.4,2.3c-0.1,0.4-0.3,0.7-0.4,1.1
		c-0.1,0.4-0.2,0.8-0.3,1.2c-1.3,3.5-1.2,1.9-1.1,3.1c-3.6,7.5-7.8,14.6-12.4,21.4C162.1,78.5,161.3,77.3,160.9,75.9z"/>
</g>
<g>
	<path class="st6" d="M167.2,116.5c-3.6,1.5-3,4.7-3.3,7.5c-0.8,7.5,1.9,14.5,3.6,21.6c0.2,0.4,0.3,0.8,0.5,1.3
		c2.5,18.2-7.6,34.2-30.2,26.1c-5.1-1.8-10.3-3.2-15.4-4.9c-0.4-0.2-0.9-0.3-1.3-0.5c-13.1-2.6-24.6-0.3-33.4,10.5
		c-1.1,1.4-2.3,2.6-3.9,3.3c-1.1,0.5-1.2,2-0.2,2.6c3.2,1.8,4.5-1.4,5.8-3c9.7-12,21.8-13,35.5-8.7c5.9,1.8,11.8,3.8,17.8,4.9
		c17.9,3.4,31.5-9.3,28.9-27.4C170.1,138.8,164.8,128,167.2,116.5z"/>
	<path class="st6" d="M80.9,67c0.6,1.5,1.1,2.9,1.7,4.4c3.4,5.4,5.8,11.5,10.6,16.3c4.2-3.3,5.8-8.1,8.7-11.8
		c0.5-1.3,0.2-3.3,2.4-3.2c-0.9-2,0.6-3.5,1-5.2c2.1-8.5-3.9-15.9-12.6-15.6C85,52.2,80.7,57.6,80.9,67z M102.2,66.8
		c-1.9,5.7-5,10.7-8.5,15.4c-1.8-0.5-2.2-1.7-2.6-3c-2.7-3.2-4.3-7-6-10.7c-1.7-3.7-1.6-7.3,1.3-10.5c2.8-3.1,6.2-4.1,10.1-2
		C101.9,58.3,103.8,61.9,102.2,66.8z"/>
	<path class="st6" d="M192.7,77.7c-4.1-4.9-9.4-7-16-6c0,1.3,0,2.2,0,3.1c12,0,18.3,7.3,14.5,16.6c-1.7,4.1-4.7,7-7.8,10
		c-1.4,1.4-3.5,2.3-3.6,4.7c1.3,1,2.4,0.6,3.5-0.3c4.5-3.5,8.4-7.5,10.7-12.8C196.5,87.7,196.6,82.3,192.7,77.7z"/>
	<path class="st6" d="M146.1,56.7c0.6,0.5,1.2,1,1.9,1.5c0,0,0,0,0.1,0c0,0-0.1,0-0.1,0c3.2,9.8,8.6,18.2,15,26.3
		c4.8-2.8,5.6-7.6,8.5-10.9c3.5-5.9,6.9-12,9.2-18.5c2.9-8.5,0.5-15.5-7-21c0,0,0,0,0,0c-0.8-0.9-1.6-1.6-2.9-1.6
		c-6.3-3.2-12.2-1.6-17.8,1.2c-2.4-0.1-2.8-3.4-5.4-2.7c-1.8,2.7,2,3.6,1.8,6c-2.7,4.2-5.4,8.7-4.2,14.3c-0.2,0.3-0.2,0.7-0.1,1.1
		c0,0.4,0,0.8-0.1,1.2c0.3,0,0.5,0,0.8,0.1C145.9,54.6,146,55.7,146.1,56.7z M148.3,58L148.3,58c0-0.2,0-0.5,0.1-0.7
		C148.3,57.5,148.3,57.7,148.3,58z M151.1,40.3c3.8-5,8.8-7.4,15.2-5.7c1.3,0.2,2.6,0.3,3.9,0.5c0.2-0.3,0.5-0.5,0.7-0.8
		c-0.2,0.3-0.5,0.5-0.7,0.8c4.6,3.1,7.9,7.1,8.5,12.8c0,0,0,2.1,0,2.1c-0.1,0.8-0.3,1.5-0.4,2.3c-0.1,0.4-0.3,0.7-0.4,1.1
		c-0.1,0.3-0.1,0.6-0.2,0.9c-0.2,0.2-1.2,2.5-1.2,3.5c-3.6,7.5-7.8,14.6-12.4,21.4c-1.9-0.6-2.7-1.8-3.1-3.3
		c-4.3-5.5-7.1-11.8-10.4-17.9h0c-0.3-0.7-0.7-1.5-1-2.2C147.7,50.3,147.4,45,151.1,40.3z"/>
	<path class="st6" d="M25,100.6c1.4,0,2.7,0.1,4.1,0.1c3.1,2.6,3.8,7.2,8.1,9.8c7-9.3,12.6-19.1,16.7-29.8c1.1-1.3,1.4-2.8,1.3-4.3
		c0-4.9-1-9.4-4.4-13.3c-3.6-4.2-8.3-6-13.7-7.1c0.2-2.1,2.1-4,0.2-6.2c-2.9,1.3-2.7,4.5-4.2,6.4C18.6,62.5,15,71.4,21.4,85.8
		c1.7,3.9,3.9,7.7,5.9,11.5c0.1,0.1,0.2,0.2,0.3,0.3c-0.1-0.1-0.2-0.2-0.3-0.3c-1,0.1-2,0.1-2.6,1.1c-17,2-28,23.1-19.5,37.8
		c0.6,1.1,1.3,1.8,2.6,1.6c0.8-2.1-0.2-4-0.8-5.9c-2.4-7.7-1-14.8,3.5-21.3C13.9,105.3,19.4,102.8,25,100.6z M23.4,82.6
		c-0.2-0.4-0.4-0.9-0.6-1.3c-5.9-12.9,7-24.8,17.5-20.9c6.8,1.3,10,5.9,11.5,12.2c0,0,0,0,0,0c-0.2,0.4-0.1,0.7,0.1,1
		C50.6,85.8,43.2,95,37.4,105c-2.5-0.9-3.2-2.6-3.8-4.3C29.6,95,26.4,88.9,23.4,82.6z M28.1,98.1c-0.1-0.1-0.2-0.2-0.3-0.3
		C27.9,97.9,28,98,28.1,98.1z"/>
	<path class="st6" d="M104.8,75.9c3.1,6.8,33.9-6.5,41.3-19.1c-0.1-1.1-0.2-2.1-0.3-3.2c-0.3,0-0.5,0-0.8-0.1
		c-0.8,0.8-8.4,5.6-10.8,7.7c-8.6,7.5-17.6,13.2-29.7,11.6C105.4,73.7,104.3,74.8,104.8,75.9z"/>
	<path class="st6" d="M104.5,72.7C104.5,72.7,104.5,72.6,104.5,72.7c-0.1-0.1-0.2-0.1-0.3-0.1c0,0,0,0.1,0,0.1
		C104.4,72.7,104.4,72.7,104.5,72.7z"/>
	<path class="st6" d="M59.8,73.5c1.9,0.9,18-3.1,19.3-3.2c0.1-0.9,0.1-1.9-0.8-2.4C74,65.6,62.3,69.2,59.8,73.5z"/>
	<path class="st6" d="M118.6,13.4c-4.2-3.6-9-4.2-14.2-2.6C108.9,13,113.6,14.2,118.6,13.4z"/>
	<path class="st6" d="M79.6,14c5.7-0.2,10.5-1,15-3C89.1,8.7,83.1,9.9,79.6,14z"/>
	<path class="st6" d="M51.4,29c-5.1,3.4-8,7.3-9.4,12.3C46.6,39,50.7,33.6,51.4,29z"/>
	<path class="st6" d="M126.6,17.1c4.5,3.6,8.5,6.1,13.8,8.4C138.1,19.9,132.5,16.6,126.6,17.1z"/>
	<path class="st6" d="M71,16.5c-5.5,0.2-9.6,2.7-12.5,7.3C63.6,22.7,67.7,20.2,71,16.5z"/>
	<path class="st6" d="M183.3,120.6c-2.7-1.2-5.2-0.7-6.9,1.7c-2,2.7-0.7,9.8,2.2,12.5c2.6,2.5,5.4,2.4,8.1,0.2c3.5-3,6-6.3,2.5-11
		C187.9,121.8,186,120.6,183.3,120.6z M182.4,133.4c-3.8-2.4-4.7-5.5-2.7-9.5c0.8-0.8,1.7-0.8,2.6-0.8c-1,0-1.9,0-2.6,0.8
		c1.2,0,2.4,0.1,3.6,0.1c1.3,0.6,2.6,1.2,3.9,1.8c0,0,0,0,0,0C188.3,130.1,185.8,131.9,182.4,133.4z"/>
	<path class="st6" d="M172.4,109.5c-1.8,1.1-7.4,7.3-7.5,9.7c0.3,0.2,2.9,0.1,3.6-1.2C170.4,116.5,173.2,108.8,172.4,109.5z"/>
	<path class="st6" d="M134.2,149.3c5.5-7.5,9.8-14.2,11.9-22c1.3-4.9-0.4-9.4-4.6-12.4c-4.4-3.1-9.3-3.2-13.8-0.7
		c-4.1,2.3-7,6.4-6.1,11.2C123.3,134.1,128.2,141.4,134.2,149.3z M136,116.3c3.9-0.1,5.6,2.6,7,5.7c0,0,0.6,2.5,0.6,2.5
		c-1.4,6.9-4.9,12.8-8.9,18.5c-2.1-0.6-2.8-2.2-3.4-4c-2.5-3.1-4-6.7-5.4-10.3C122.7,121,127.4,115.3,136,116.3z"/>
	<path class="st6" d="M96.7,123.1c-1.4,4.1-2.9,8.2-4.3,12.3c0.3,0,0.6,0.1,0.8,0.3c0.4,0.6,0.8,0.6,1.1,0c9-13.2,7.9-24.4-3.2-31.8
		c-0.5-0.3-0.9-0.5-1.4-0.8c-0.6-0.2-1.3-0.4-1.9-0.6c-0.5-0.2-0.9-0.4-1.4-0.6c-2.6-0.1-5.2-0.4-7.7-0.1c-7.1,1-11.8,5.4-12.3,11.1
		c1.5,0.1,2.3-0.8,3.1-1.9c3.9-5.2,9-7.3,15.4-6.2c0.4,0.2,0.9,0.3,1.3,0.5c0,0,0.1,0.4,0.1,0.4c7.4,2.1,11,7.5,10.7,16.2
		C97,122.2,96.8,122.7,96.7,123.1z"/>
	<path class="st6" d="M56.4,139.8c-5.4-3.4-11-2.5-16.1,2.5v0c-1.4,0.7-1.9,2-2,3.5c-2.9,4.3-0.5,8.3,0.9,12.3
		c0.3,0.1,0.5,0.2,0.8,0.3c0,0,0,0,0,0c1.4,4.6,3.7,8.6,6.9,12c0.4,1.1,0.8,2.2,1.2,3.3c2.3,0.3,3.4-1.3,4.4-2.9
		c3.3-5.2,6.5-10.4,8.4-16.4C62.9,148.2,61.3,142.8,56.4,139.8z M58.4,152.6c-1.3,5.6-4.5,10.6-8.2,15.1c-0.3,0.4-1.3,0.2-2,0.3
		c0,0,0,0,0,0c-0.7-1.5-1.4-3-2.1-4.5c-1.1-1.8-2.2-3.6-3.3-5.5c-0.3-0.6-0.6-1.3-0.9-1.9c-1.5-3.4-1.9-7-1-10.6
		c0.2-0.3,0.4-0.6,0.6-0.9l0,0c3.3-2.7,6.7-5.1,11.3-2.7C58.5,143.6,59.5,148.2,58.4,152.6z"/>
	<path class="st6" d="M82,149.7c-1.4-0.6-1.8-1.8-2.2-3c-4.5-5.9-7.9-12.4-10.9-19.1c0.3-0.5,0.1-0.8-0.4-0.9
		c-0.7-2.7-1.4-5.5-2.1-8.2c-4.5,0.8-2.4,4-1.7,6c2.1,7,5.5,13.4,9.4,19.5c2.5,3.8,4.1,8.2,7.9,11c5.3-4.9,8.9-11.1,9.1-15.7
		C85.9,141,86.1,147.3,82,149.7z"/>
	<path class="st6" d="M27,176.3c0.4-3.1,0.3-5.2,1.9-7.1c0.8-2.2,1.8-4.4,2.4-6.7c1-3.8,0.9-7.3-3.2-9.4c-0.3-0.3-0.5-0.6-0.8-0.8
		c-4.8-4.2-10.3-7.4-16.1-10.1c-1.1,3,1.5,3.9,3.1,5.1c3,2.2,10.7,6.4,11.4,6.6c0,0,4,5,3.2,5.4c-0.4,2.9-1.5,5.1-2.7,7.3
		c-3.9,6.9-1.8,15.7,4.8,20.2c3.2,2.2,6.4,4.3,10.4,4.9c0.4-0.9,0.1-2.7,0-3.2C34.5,186.2,30.2,182.6,27,176.3z"/>
	<path class="st6" d="M147.9,153.2c0,0,0.2,0.2,0.2,0.2c0.1-1.7,0.1-3.4,2.5-3.3c1.9,0.1,1.5,3.6,4.3,2.7c1.3-3.3-0.7-5-3.3-6.3
		c-2.3,0.1-4.6,0.3-5.8,2.5C144.6,151.2,144,153.4,147.9,153.2z"/>
	<path class="st6" d="M115,103.2c-1.1,2.4,0.1,4,1.9,5.4c1.9,1.4,3.8,1.2,5.7-0.1c1.9-1.4,3-3.1,1.1-6.4c-1.6,1.7-2.7,2.9-3.5,3.7
		C117.5,106.2,117.6,102.9,115,103.2z"/>
	<path class="st6" d="M25.1,117.4c-1.3,1.5-2.5,3.3-0.3,4.9c2.3-0.2,1.9-3.6,4.5-3.2c1.9,0,1.6,2.9,4.3,3c0.8-2.7,0.3-4.7-2.5-5.9
		C28.8,115.1,26.7,115.5,25.1,117.4z"/>
	<path class="st6" d="M113.9,143.9c0.6-1,1-1.9-0.5-2.5c-2.8-0.8-2.2,4-4.9,3c-2.1-0.2-1.3-3.2-3.5-3.1c-1.2,0.2-1.3,1.1-1.4,2
		c0.2,0.5,0.4,0.9,0.5,1.4C108.3,149.4,110.9,149.2,113.9,143.9z"/>
	<path class="st6" d="M148.2,89.9c-3.3,3.2-3.3,3.2-1.8,6.3c2.3,0.1,1.5-3.5,4-3.2c2.4-0.4,1.9,3.2,4.2,3c1.5-1.8,0.5-3.4-0.7-5.1
		C152.1,90.3,150.3,89.1,148.2,89.9z"/>
	<path class="st6" d="M116.4,91.7c5.4-1.8,10.1-2.8,14.8-6.2C125.4,84.3,119.2,86.8,116.4,91.7z"/>
	<path class="st6" d="M108.4,95.2c-4.8,1-7.9,4.3-11.2,7.5c-0.6,0.5-0.7,1-0.1,1.5C103,103.8,105.5,99.3,108.4,95.2z"/>
	<path class="st6" d="M70.4,89.5c-2.3-0.2-2.6,3-4.8,2.4c-1.8-0.1-1.7-3-4.2-2.5c-1.6,3.6,0.6,5,3.6,6c0.9,0.9,1.7,0.9,2.5-0.1
		C70.3,94.2,71.5,92.5,70.4,89.5z"/>
	<path class="st6" d="M139.3,82.9c3.6,3,7.1,0,10.1,1.2c0.4,0.5,0.8,0.4,1.1-0.1c1.2-0.6,1.7-1.5,0.6-3
		C147.4,80.5,143.5,80.5,139.3,82.9z"/>
	<path class="st6" d="M80.7,112.6c-3.6,0.6-5.5,3-5.8,6.5c-0.3,3.5,1.3,6.3,4.5,7.6c3.9,1.6,7.2,0.4,9.4-3.4c1.7-2,1.6-4.1,0.3-6.3
		C87.7,112.8,84.5,112,80.7,112.6z M81.1,123.8c-3.6-1.2-3.5-4.3-1.8-7.3c3.2-2.2,5.5-1.2,7.5,1.9C86.4,122.4,84.7,125,81.1,123.8z"
		/>
	<path class="st6" d="M39.2,81.8c4-1.8,6.1-4.7,5.1-9.2c-0.1-0.4-0.3-0.7-0.4-1.1c-0.6-1.7-1.6-3-3.4-3.6c-0.4-0.2-0.8-0.4-1.3-0.6
		c-0.4-0.2-0.8-0.4-1.2-0.6c-0.4-0.5-0.8-0.5-1.2-0.1c0,0,0,0.4,0,0.4c-0.4-0.2-0.7-0.2-1,0.1c-4,0.3-5.8,2.9-6.3,6.4
		c-0.5,3.9,1.6,6.6,5.1,8.2C36.2,81.7,37.7,81.7,39.2,81.8z M32.8,74c0.2-2.6,1.9-3.9,4.4-4c2.8,0.3,4.3,1.8,4.3,4.4
		c0,2.7-1.7,4.2-4.2,4.3C34.3,78.7,32.6,76.9,32.8,74z"/>
	<path class="st6" d="M88.6,65.6c0.6,3.8,3.6,4.2,6.8,4c4.6-4.1,4.7-5.8,0.3-9.7c-0.1-0.3-0.2-0.6-0.3-0.8c-0.7,0.1-1.5,0.1-2.2,0.2
		C89.6,59.9,88,62.1,88.6,65.6z M92.6,62.7c2.2,0,3.1,0.7,2.7,2.4c-0.2,1-1.1,1.5-2.1,1.2C91.1,65.5,91.8,64.2,92.6,62.7z"/>
	<path class="st6" d="M156.5,49c0.1,5.8,3.9,7.1,8.7,7.2c0.5,0.4,0.8,0.3,1.1-0.2c3.7-1.9,5.6-4.8,4.7-9.1c-0.6-3.1-2.6-5-5.5-5.6
		c-3.8-0.7-7,0.3-8.5,4.4c0,0,0,0,0,0C156,46.7,156.1,47.8,156.5,49z M159.9,45.8c2.1-1.6,4.3-2.4,6.5-0.4c2.1,1.9,2.3,4.4,0.3,6.3
		c-2.9,2.7-5.4,1.4-7.2-1.6C159.6,48.7,159.8,47.2,159.9,45.8z"/>
	<path class="st6" d="M137.1,130.1c3.4-3.3,3.4-6.6-0.1-9.9c-4.1-1-7.5-0.1-7.7,4.6C129.1,130.1,132.9,130.7,137.1,130.1z M134,123
		c2.8,1.5,2.7,2.8,0.6,4.5C132.2,126.4,131.8,125.1,134,123z"/>
	<path class="st6" d="M54,148.9c-0.5-0.9-0.9-1.9-1.4-2.8c-1.4-0.4-2.8-0.9-4.2,0c-3.1,1-4.7,3.1-3.5,6.3c1.3,3.7,4.3,4,7.7,3.1
		C54.3,153.5,56.2,151.7,54,148.9C54,148.9,54,148.9,54,148.9z M50.5,152.4c-2.6,0.1-2.6-1.4-2.2-3.3c1.1,0,2.1,0,3.2-0.1
		C51.7,150.3,51.9,151.6,50.5,152.4z"/>
</g>
</svg>
