<?xml version="1.0" encoding="utf-8"?>
<!-- Generator: Adobe Illustrator 27.4.1, SVG Export Plug-In . SVG Version: 6.00 Build 0)  -->
<svg version="1.1" id="Layer_1" xmlns="http://www.w3.org/2000/svg" xmlns:xlink="http://www.w3.org/1999/xlink" x="0px" y="0px"
	 viewBox="0 0 200 200" style="enable-background:new 0 0 200 200;" xml:space="preserve">
<style type="text/css">
	.st0{fill:#009688;}
	.st1{fill:#3E453D;}
	.st2{fill:#595B5A;}
	.st3{fill:#CCEBE7;}
	.st4{fill:#F6E5D3;}
	.st5{fill:#727772;}
	.st6{fill:#ABD29B;}
	.st7{fill:#C5C7C6;}
	.st8{fill:#FFCF33;}
	.st9{fill:#FFC400;}
	.st10{fill:#33AB9F;}
	.st11{fill:#96BD82;}
	.st12{fill:#5393FF;}
	.st13{fill:#2979FF;}
	.st14{fill:#A0B8DC;}
	.st15{fill:#DBBD72;}
</style>
<path class="st0" d="M153.4,146.4c1.6-9.6,0.1-19.2,1.2-28.8c0.7-6.4,4.5-10.5,9.8-13.3c3.9-2.1,8.2-3.4,12.3-5.3
	c4.5-2.1,7.6-5.2,6.9-10.7c-7.3-3.7-13.8,1-20.7,0.9c-9.5-8.9-14.5-20.1-17.3-32.5c0.8-0.1,1.5-0.1,2.3-0.2c0.6,0.5,1.2,1,1.9,1.5
	c3.2,9.8,8.6,18.3,15,26.3c4.8-2.8,5.6-7.6,8.5-10.9c1.4,1.9,3.6,0.7,5.3,1.1c12,0,18.3,7.3,14.5,16.7c-1.7,4.1-4.7,7-7.8,10
	c-1.4,1.4-3.5,2.3-3.6,4.7c-2.2,0.1-3.9,1.2-5.5,2.4c-0.8,0.7-1.6,1.4-2.5,2.2c-1.8,1.1-3.5,2.3-3.6,4.7c-1.4,0.1-2.1,0.7-2,2.2
	c-2.3,1.6-2.1,4.1-2.4,6.5c-0.8,7.6,1.9,14.5,3.6,21.7c0.2,0.4,0.3,0.8,0.5,1.3c2.5,18.2-7.6,34.3-30.3,26.2
	c-5.1-1.8-10.3-3.3-15.4-4.9c-0.4-0.2-0.9-0.3-1.3-0.5c-13.1-2.6-24.6-0.3-33.5,10.6c-1.2,1.5-2.5,2.8-4.3,3.5
	c-1,0.4-1.5,1.1-1.5,2.1c-0.7,0.8-1.4,1.6-2,2.4c-2.6-0.1-4.5,1.5-6.8,2.4c-8.5,3.5-17.2,4.7-26.1,1.6c2.8-6.7,7.5-12.1,14.2-13.8
	c5.9-1.5,11.1-3.8,15.1-7.9c14-14.2,31-15.9,49.1-12.2c5.5,1.1,11.1,1.2,16.7,2.9c2.1-1.8,6.2-1.6,5.9-6.1c0,0,0.2,0.2,0.2,0.2
	c2.5,0.2,2.4-1.6,2.5-3.3c1.9,0.1,1.5,3.7,4.3,2.7C158,149.4,156,147.7,153.4,146.4z"/>
<path class="st1" d="M169.4,145.6c-1.7-7.1-4.4-14.1-3.6-21.7c0.3-2.4,0.1-4.9,2.4-6.5c0.4,0,0.8,0,1.1,0
	c-2.1,11.3,2.7,21.6,4.2,32.4c2.6,18.2-11.1,30.9-29,27.5c-6.1-1.2-12-3.1-17.9-4.9c-13.7-4.3-25.9-3.3-35.6,8.8
	c-1.3,1.6-2.8,5.2-6.2,2.7c0.1-0.7,0.1-1.4,0.2-2.1c1.8-0.7,3.1-2,4.3-3.5c8.8-10.8,20.4-13.2,33.5-10.6c0.4,0.1,0.9,0.3,1.3,0.5
	c5.1,1.6,10.4,3.1,15.4,4.9c22.7,8.1,32.8-7.9,30.3-26.2C169.7,146.4,169.5,146,169.4,145.6z"/>
<path class="st1" d="M103.5,75.6c-2.9,3.8-4.5,8.5-8.7,11.9c-4.8-4.8-7.3-10.9-10.7-16.3c-0.6-1.5-1.1-3-1.7-4.4
	c-0.1-9.4,4.1-14.8,11.8-15.2c8.7-0.4,14.7,7.1,12.6,15.6c-0.4,1.7-2,3.3-1,5.3c0,0,0.1-0.1,0.1-0.1C103.6,72.2,104,74.2,103.5,75.6
	z M98.1,55.7c-3.9-2-7.3-1-10.1,2c-2.9,3.1-3,6.8-1.3,10.5C88.4,72,90,75.8,92.8,79c0.4,1.2,0.7,2.5,2.6,3c3.5-4.7,6.6-9.8,8.5-15.5
	C105.5,61.6,103.5,58,98.1,55.7z"/>
<path class="st1" d="M173.3,73.4c-2.9,3.3-3.7,8.2-8.5,10.9c-6.4-8.1-11.8-16.5-15-26.3c0,0,0.3-0.3,0.3-0.3c0.7,0,1.5,0,2.2,0
	c3.3,6.1,6.1,12.4,10.4,17.9c0.5,1.5,1.2,2.7,3.1,3.3c4.6-6.8,8.8-13.9,12.4-21.4c1.3-0.7,1.2-1.9,1.1-3.1c0.1-0.4,0.2-0.8,0.3-1.2
	c0.1-0.4,0.3-0.8,0.4-1.1c0.1-0.8,0.3-1.5,0.4-2.3c0-0.7,0-1.4,0-2.1c-0.6-5.8-3.9-9.7-8.5-12.9c0.2-0.3,0.5-0.5,0.7-0.8
	c0.9-0.1,1.9-0.2,2.8-0.3c7.5,5.6,9.9,12.6,7,21.1C180.2,61.4,176.8,67.4,173.3,73.4z"/>
<path class="st1" d="M181.7,105.9c0.1-2.4,2.2-3.3,3.6-4.7c3.1-3,6.1-5.9,7.8-10c3.8-9.4-2.5-16.7-14.5-16.7c0-0.9,0-1.8,0-3.1
	c6.6-1,12,1.2,16,6c3.9,4.6,3.8,10.1,1.4,15.4c-2.3,5.3-6.2,9.3-10.8,12.8C184.1,106.5,183,106.9,181.7,105.9z"/>
<path class="st1" d="M149.7,58c-0.6-0.5-1.2-1-1.9-1.5c-0.1-1.1-0.2-2.2-0.4-3.2c0.1-0.3,0.1-0.6,0.1-0.9c-0.2-0.5-0.5-0.9-0.7-1.4
	c-1.2-5.6,1.5-10.1,4.2-14.3c0.2-2.4-3.6-3.3-1.8-6c2.6-0.7,3,2.6,5.4,2.7c5.5-2.8,11.5-4.4,17.8-1.2c0,0.6,0.1,1.3,0.1,1.9
	c-0.2,0.3-0.5,0.5-0.7,0.8c-1.3-0.2-2.6-0.3-3.9-0.5c-6.4-1.7-11.4,0.7-15.2,5.7c-3.7,4.7-3.3,10.1-1.6,15.5
	c-0.9,0.5-1.1,1.3-1.1,2.3C150.1,57.7,149.7,58,149.7,58z"/>
<path class="st1" d="M26.4,100.4c-5.6,2.3-11.1,4.7-14.7,9.9c-4.5,6.5-5.9,13.7-3.5,21.4c0.6,1.9,1.7,3.8,0.8,6
	c-1.3,0.2-2-0.5-2.6-1.6c-8.4-14.7,2.5-35.8,19.6-37.8C26.2,98.9,26.3,99.6,26.4,100.4z"/>
<path class="st1" d="M144.5,56.5c-10.3,11.1-21.2,21-38.1,19.1c-0.5-1.1,0.8-2.3-0.3-3.3c0,0-0.1,0.1-0.1,0.1
	c12.2,1.7,21.3-4,29.9-11.6c2.4-2.1,4-6.1,8.5-5.2C144.2,56,144.3,56.3,144.5,56.5z"/>
<path class="st1" d="M48.6,190.2c8.9,3.1,17.6,1.9,26.1-1.6c2.2-0.9,4.2-2.5,6.8-2.4c1.5,3.1-1.4,3.5-3,4.3
	c-10.7,5.3-21.8,6.3-33.2,2.5c0.1-0.9,0.2-1.8,0.3-2.7C46.6,190.2,47.6,190.2,48.6,190.2z"/>
<path class="st1" d="M191,124c3.6,4.7,1,8-2.5,11c-2.6,2.2-5.5,2.3-8.1-0.2c-2.9-2.7-4.2-9.8-2.2-12.5c1.8-2.5,4.2-2.9,6.9-1.7
	c0,0.8-0.1,1.7-0.1,2.5c-1.2,0-2.5-0.3-3.5,0.8c-1.9,3.9-1.1,7.1,2.8,9.5c3.4-1.5,6-3.3,4.8-7.6C189.7,125.2,190.3,124.6,191,124z"
	/>
<path class="st1" d="M27.1,153.9c-0.7-0.2-1.4-0.4-2.1-0.6c-3.1-2-6.3-3.9-9.3-6c-1.6-1.2-4.3-2.1-3.1-5.2
	c5.8,2.7,11.3,5.9,16.1,10.2C28.2,152.8,27.7,153.4,27.1,153.9z"/>
<path class="st1" d="M80.7,70.1c-1.3,0.1-2.6,0.2-3.9,0.3c-0.4,0-0.7,0-1.1,0c-3.3-0.3-6.2,1-9.1,2.2c-1.7,0.7-3.3,1.6-5.3,0.7
	c2.6-4.4,14.3-7.9,18.5-5.6C80.8,68.2,80.8,69.1,80.7,70.1z"/>
<path class="st1" d="M106.1,10.4c5.2-1.6,10-0.9,14.2,2.6C115.3,13.8,110.6,12.7,106.1,10.4z"/>
<path class="st1" d="M96.2,10.6c-4.5,2-9.3,2.8-15,3C84.7,9.5,90.7,8.3,96.2,10.6z"/>
<path class="st1" d="M43.5,41c1.4-5,4.3-9,9.5-12.3C52.2,33.2,48.1,38.7,43.5,41z"/>
<path class="st1" d="M128.3,16.8c6-0.6,11.5,2.8,13.8,8.4C136.8,22.9,132.8,20.4,128.3,16.8z"/>
<path class="st1" d="M60.1,23.5c2.9-4.6,7-7.1,12.5-7.3C69.3,19.9,65.1,22.4,60.1,23.5z"/>
<path class="st2" d="M185,123c0-0.8,0.1-1.7,0.1-2.5c2.7-0.1,4.6,1.1,5.8,3.4c-0.7,0.6-1.3,1.2-2,1.8c-1.3-0.6-2.6-1.2-3.9-1.8
	C185.1,123.6,185,123.3,185,123z"/>
<path class="st2" d="M173.7,110.5c0.8-0.7,1.6-1.4,2.5-2.2c2.6,3.4-0.5,4.2-2.4,5.7C173.7,112.8,173.7,111.7,173.7,110.5z"/>
<path class="st1" d="M173.7,110.5c0,1.2,0,2.3,0,3.5c-0.7,1.4-1.7,2.3-3.3,2.1c0.1-0.3,0-0.6-0.3-0.8
	C170.2,112.8,171.9,111.6,173.7,110.5z"/>
<path class="st1" d="M26.4,100.4c-0.1-0.7-0.2-1.5-0.3-2.2c0.6-0.9,1.6-1,2.6-1.1c1.2,0.9,1.6,2.1,1.8,3.4
	C29.2,100.5,27.8,100.4,26.4,100.4z"/>
<path class="st3" d="M10.3,137.8c1.8,0.4,4.2,0.3,2.3,3.2C11.2,140.4,10.4,139.4,10.3,137.8z"/>
<path class="st1" d="M144.5,56.5c-0.2-0.3-0.3-0.6-0.1-0.9c0.8-0.8,1.6-1.7,2.4-2.5c0.3,0,0.5,0,0.8,0.1c0.1,1.1,0.2,2.2,0.4,3.2
	c-0.8,0.1-1.5,0.1-2.3,0.2C145.2,56.6,144.9,56.5,144.5,56.5z"/>
<path class="st4" d="M82.5,66.7c0.6,1.5,1.1,3,1.7,4.4c-1.5-0.1-2.7-0.4-3-2.2C81.1,67.9,81.6,67.2,82.5,66.7z"/>
<path class="st5" d="M45.5,190.1c-0.1,0.9-0.2,1.8-0.3,2.7c-0.4,0.1-0.8,0.2-1.2,0.2c-0.4-0.4-0.7-0.9-1.1-1.3
	c0.1-0.8,0.1-1.6,0.2-2.4C44,189.6,44.8,189.9,45.5,190.1z"/>
<path class="st1" d="M172.6,34c0-0.6-0.1-1.3-0.1-1.9c1.2,0.1,2.1,0.8,2.9,1.6C174.5,33.8,173.6,33.9,172.6,34z"/>
<path class="st6" d="M58.9,76.9c-0.2,1.3-0.9,2.1-2.3,2.2c-0.1-0.8-0.2-1.6-0.3-2.4l0.3-0.1c0,0,0.2,0.2,0.2,0.2
	C57.4,76.9,58.2,76.9,58.9,76.9z"/>
<path class="st3" d="M170.1,115.2c0.3,0.2,0.4,0.5,0.3,0.8c-0.4,0.4-0.7,0.9-1.1,1.3c-0.4,0-0.8,0-1.1,0
	C168,116,168.7,115.3,170.1,115.2z"/>
<path class="st7" d="M85,181.7c-0.1,0.7-0.1,1.4-0.2,2.1c-0.4,0-0.9,0-1.3,0C83.6,182.8,84.1,182,85,181.7z"/>
<path class="st1" d="M146.9,50.9c0.2,0.5,0.5,0.9,0.7,1.4c-0.3-0.1-0.5-0.2-0.8-0.3C146.7,51.6,146.7,51.2,146.9,50.9z"/>
<path class="st1" d="M146.8,52c0.3,0.1,0.6,0.2,0.8,0.3c0.1,0.3,0,0.6-0.1,0.9c-0.3,0-0.5,0-0.8-0.1C146.7,52.7,146.8,52.3,146.8,52
	z"/>
<path class="st8" d="M67.8,118.4c0.1-1.9,0.1-3.8,0.2-5.7c1.5,0.1,2.3-0.8,3.1-1.9c3.9-5.2,9-7.3,15.5-6.2c0.4,0.2,0.9,0.3,1.3,0.5
	l0.1,0.4c0.4,2.6,2.7,4,4,5.9c2.6,3.6,3.8,7.4,2.2,11.5c-3.1,8.6-7.8,16.3-12.9,23.8c-4.5-5.9-7.9-12.4-10.9-19.1
	c0.3-0.5,0.1-0.8-0.4-0.9C69.3,123.9,68.6,121.2,67.8,118.4z M90.4,123.2c1.8-2,1.6-4.1,0.3-6.3c-1.3-4.2-4.6-5.1-8.4-4.5
	c-3.6,0.6-5.5,3-5.8,6.5c-0.3,3.5,1.3,6.3,4.5,7.6C84.9,128.1,88.2,127,90.4,123.2z"/>
<path class="st1" d="M135.9,149.2c-6-7.9-10.9-15.2-12.6-23.9c-1-4.8,2-8.9,6.1-11.2c4.5-2.6,9.5-2.4,13.8,0.7
	c4.2,3,5.9,7.5,4.6,12.4C145.8,135,141.4,141.7,135.9,149.2z M144.7,121.9c-1.3-3.1-3-5.8-7-5.7c-8.5-1-13.3,4.7-10.2,12.5
	c1.4,3.6,2.9,7.2,5.4,10.3c0.5,1.8,1.3,3.3,3.4,4c4-5.8,7.5-11.7,8.9-18.6C145.6,123.4,145.5,122.6,144.7,121.9z"/>
<path class="st9" d="M81.3,146.7c5.1-7.5,9.8-15.3,12.9-23.8c1.5-4.1,0.4-7.9-2.2-11.5c-1.4-1.9-3.6-3.3-4-5.9
	c7.4,2.1,11,7.5,10.8,16.2c-0.1,0.4-0.3,0.8-0.4,1.3c-1.5,4.1-2.9,8.2-4.4,12.3c-1.8,0.9-1.4,2.5-1.4,4c-5.1,1.6-4.9,7.9-9,10.3
	C82.2,149.1,81.8,147.9,81.3,146.7z"/>
<path class="st1" d="M94,135.3c1.5-4.1,2.9-8.2,4.4-12.3c0.1-0.4,0.3-0.8,0.4-1.3c0.3-8.7-3.3-14.1-10.8-16.2c0,0-0.1-0.4-0.1-0.4
	c-0.3-0.6-0.7-0.8-1.3-0.5c-6.4-1.1-11.6,1.1-15.5,6.2c-0.8,1.1-1.7,2-3.1,1.9c0.5-5.8,5.3-10.2,12.4-11.2c2.5-0.3,5.2,0,7.7,0.1
	c0.5,0.2,0.9,0.4,1.4,0.6c0.6,0.2,1.3,0.4,1.9,0.6c0.5,0.3,0.9,0.5,1.4,0.8c11.1,7.4,12.3,18.6,3.2,31.9c-0.4-0.1-0.7-0.1-1.1,0
	C94.6,135.4,94.3,135.3,94,135.3z"/>
<path class="st1" d="M41.8,142.1c5.1-5,10.7-5.9,16.1-2.5c4.9,3.1,6.5,8.5,4.6,14.8c-1.8,6-5.1,11.2-8.4,16.4
	c-1,1.6-2.1,3.2-4.4,2.9c-0.4-1.1-0.8-2.2-1.2-3.3c1-0.5,1.3-1.3,1.3-2.3c0.7-0.1,1.7,0.1,2-0.3c3.6-4.6,6.9-9.5,8.2-15.2
	c1-4.5,0.1-9.1-5.6-10.6c-4.6-2.5-8,0-11.3,2.7C42.6,143.8,42.2,143,41.8,142.1z"/>
<g>
	<g>
		<g>
			<g>
				<path class="st10" d="M58.9,76.9c2-0.4,2.4-2,2.5-3.7c1.9,0.9,3.5,0,5.3-0.7c2.9-1.2,5.8-2.5,9.1-2.2c0.4,0.5,0.8,0.5,1.1,0
					c1.3-0.1,2.6-0.2,3.9-0.3c0.1-0.4,0.3-0.7,0.4-1.1c0.3,1.8,1.5,2.1,3,2.2c3.4,5.4,5.8,11.5,10.7,16.3c4.2-3.4,5.8-8.1,8.7-11.9
					c1,0,2,0,2.9,0c16.8,1.9,27.8-7.9,38.1-19.1c0.4,0,0.7,0,1.1,0.1c2.8,12.4,7.8,23.6,17.3,32.5c6.9,0.1,13.4-4.6,20.7-0.9
					c0.7,5.5-2.4,8.6-6.9,10.7c-4,1.9-8.3,3.2-12.3,5.3c-5.3,2.8-9.1,6.9-9.8,13.3c-1,9.6,0.5,19.3-1.2,28.8
					c-2.3,0.1-4.6,0.3-5.8,2.5c-1.2,2.3-1.8,4.5,2.1,4.2c0.3,4.5-3.8,4.3-5.9,6.1c-5.6-1.7-11.3-1.8-16.7-2.9
					c-18.1-3.6-35.2-2-49.1,12.2c-4,4.1-9.2,6.4-15.1,7.9c-6.7,1.7-11.5,7.1-14.2,13.8c-1,0-2,0-3.1-0.1c-0.8-0.3-1.6-0.5-2.4-0.8
					c-0.1-0.2-0.3-0.5-0.3-0.8c0.1-1.6,0.2-3.3,0.3-5c1.5-2.3,4.7-4.2,2.1-7.5c0.8-2.1,2.5-2.5,4.5-2.4c2.3,0.3,3.4-1.3,4.4-2.9
					c3.3-5.2,6.5-10.4,8.4-16.4c1.9-6.3,0.4-11.7-4.6-14.8c-5.4-3.4-11.1-2.5-16.1,2.5c-1.4,0.7-1.9,2-2,3.5
					c-2.9,4.4-0.5,8.3,0.9,12.3c-1.7,0.2-3.2,0.8-4.6,2.7c1,4.2-0.9,8.5-1.1,13.1c-2.9-0.1-2.5-3.7-4.7-4.6c0.8-2.2,1.8-4.4,2.4-6.7
					c1-3.8,0.9-7.3-3.2-9.4c-0.3-0.3-0.6-0.6-0.8-0.8c-4.8-4.2-10.3-7.5-16.1-10.2c-0.1-0.3-0.1-0.7-0.1-1.1c1.9-3-0.5-2.9-2.3-3.2
					c-0.4-0.1-0.7-0.2-1.1-0.3c0.8-2.1-0.2-4-0.8-6c-2.4-7.7-1-14.8,3.5-21.4c3.6-5.2,9.1-7.6,14.7-9.9c1.4,0,2.8,0.1,4.1,0.1
					c3.1,2.6,3.8,7.2,8.1,9.8c7-9.3,12.7-19.2,16.8-30c0.4-0.4,0.7-0.8,1.1-1.2C57.9,79,58.7,78.3,58.9,76.9z M151.2,83.9
					c0.4,0.5,0.8,0.4,1.1-0.1c1.2-0.6,1.7-1.5,0.6-3c-3.8-0.6-7.6-0.6-11.8,1.8C144.7,85.7,148.2,82.7,151.2,83.9z M69,95.1
					c2.8-1,4.1-2.8,2.9-5.8c-2.3-0.2-2.6,3-4.8,2.4c-1.8-0.1-1.7-3-4.2-2.6c-1.6,3.6,0.6,5,3.6,6C67.4,96,68.2,96,69,95.1z
					 M98.9,102.5c-0.6,0.5-0.7,1-0.1,1.5c5.8-0.4,8.4-4.9,11.2-9C105.3,96.1,102.1,99.3,98.9,102.5z M105.2,143.3
					c0.2,0.5,0.4,1,0.5,1.4c4.2,4.7,6.9,4.4,9.8-0.9c0.7-1,1-1.9-0.5-2.5c-2.8-0.9-2.2,4.1-5,3c-2.1-0.2-1.3-3.2-3.5-3.1
					C105.4,141.4,105.3,142.3,105.2,143.3z M96,135.5c9-13.2,7.9-24.5-3.2-31.9c-0.5-0.3-0.9-0.5-1.4-0.8c-0.6-0.2-1.3-0.4-1.9-0.6
					c-0.5-0.2-0.9-0.4-1.4-0.6c-2.6-0.1-5.2-0.4-7.7-0.1c-7.1,1-11.8,5.4-12.4,11.2c-0.1,1.9-0.1,3.8-0.2,5.7c-4.5,0.8-2.4,4-1.8,6
					c2.1,7,5.5,13.5,9.4,19.6c2.5,3.8,4.1,8.2,7.9,11c5.3-4.9,8.9-11.2,9.1-15.7c0-1.5-0.4-3.1,1.4-4c0.3,0,0.6,0.1,0.8,0.3
					C95.2,136.2,95.6,136.2,96,135.5z M135.9,149.2c5.5-7.5,9.9-14.2,11.9-22.1c1.3-4.9-0.4-9.4-4.6-12.4c-4.4-3.1-9.3-3.2-13.8-0.7
					c-4.1,2.3-7.1,6.4-6.1,11.2C125.1,134,129.9,141.3,135.9,149.2z M125.4,102c-1.6,1.7-2.7,2.9-3.5,3.8c-2.6,0.3-2.6-3-5.2-2.7
					c-1.1,2.4,0.1,4,1.9,5.4c1.9,1.4,3.8,1.2,5.7-0.1C126.2,107,127.3,105.2,125.4,102z M35.1,121.9c0.8-2.7,0.3-4.7-2.5-5.9
					c-2.4-1-4.4-0.6-6,1.3c-1.3,1.5-2.5,3.3-0.3,4.9c2.4-0.2,1.9-3.6,4.5-3.2C32.7,118.9,32.4,121.8,35.1,121.9z M152.1,92.7
					c2.4-0.4,1.9,3.2,4.2,3c1.5-1.8,0.5-3.4-0.7-5.1c-1.8-0.6-3.6-1.7-5.7-1c-3.3,3.2-3.3,3.2-1.8,6.3
					C150.4,96,149.7,92.4,152.1,92.7z M133,85.3c-5.9-1.2-12.1,1.3-14.9,6.2C123.6,89.7,128.2,88.7,133,85.3z"/>
			</g>
		</g>
		<g>
			<path class="st10" d="M30.3,169.2c2.2,0.9,1.8,4.5,4.7,4.6c2.8,3.2,6.6,2,10.1,2.2c2.6,3.4-0.5,5.3-2.1,7.5
				c-0.1,1.7-0.2,3.3-0.3,5c-6.9-2.4-12.6-6.1-15.8-12.4C27.5,173.1,28.7,171.1,30.3,169.2z"/>
		</g>
		<g>
			<path class="st10" d="M48.5,170.4c0.4,1.1,0.8,2.2,1.2,3.3c-2-0.1-3.7,0.3-4.5,2.4c-3.5-0.2-7.3,1-10.1-2.2
				c0.1-4.6,2.1-8.9,1.1-13.1c1.4-2,2.9-2.5,4.6-2.7c0.3,0.1,0.5,0.2,0.8,0.3C42.9,162.9,45.2,166.9,48.5,170.4z"/>
		</g>
	</g>
</g>
<path class="st1" d="M81.3,146.7c0.5,1.2,0.8,2.4,2.2,3c4.1-2.5,3.9-8.8,9-10.3c-0.3,4.5-3.8,10.8-9.1,15.7c-3.8-2.8-5.5-7.3-7.9-11
	c-4-6.1-7.3-12.6-9.4-19.6c-0.6-2.1-2.8-5.2,1.8-6c0.7,2.8,1.4,5.5,2.2,8.3c0,0.4,0.1,0.7,0.4,0.9C73.5,134.3,76.9,140.8,81.3,146.7
	z"/>
<path class="st1" d="M30.3,169.2c-1.6,1.8-2.9,3.8-3.3,6.9c3.2,6.3,8.9,10.1,15.8,12.4c0.1,0.3,0.2,0.5,0.3,0.8
	c-0.1,0.8-0.1,1.6-0.2,2.4c-4-0.6-7.3-2.8-10.5-4.9c-9.4-6.4-10.3-10.5-4.8-20.4c1.2-2.1,2.2-4.3,2.6-7.1c-0.7-1.4-1.5-3-2.3-4.7
	c0.5-0.5,1-1,1.5-1.5c4.1,2.1,4.2,5.6,3.2,9.4C32.1,164.8,31.1,167,30.3,169.2z"/>
<path class="st1" d="M153.4,146.4c2.6,1.3,4.6,3,3.3,6.3c-2.8,1-2.4-2.6-4.3-2.7c-2.4-0.1-2.4,1.7-2.5,3.3c0,0-0.2-0.2-0.2-0.2
	c-4,0.3-3.4-1.9-2.1-4.2C148.8,146.6,151.1,146.5,153.4,146.4z"/>
<path class="st1" d="M125.4,102c1.9,3.2,0.9,4.9-1.1,6.4c-1.8,1.3-3.8,1.5-5.7,0.1c-1.9-1.4-3.1-3-1.9-5.4c2.6-0.3,2.6,3,5.2,2.7
	C122.7,104.9,123.8,103.7,125.4,102z"/>
<path class="st1" d="M35.1,121.9c-2.8-0.1-2.4-3-4.3-3c-2.6-0.4-2.1,3-4.5,3.2c-2.3-1.6-1-3.4,0.3-4.9c1.6-1.9,3.7-2.3,6-1.3
	C35.4,117.1,35.9,119.1,35.1,121.9z"/>
<path class="st1" d="M115.6,143.8c-3,5.3-5.6,5.6-9.8,0.9c-0.2-0.5-0.4-1-0.5-1.4c0.1-1,0.2-1.8,1.4-2c2.2-0.1,1.5,2.9,3.5,3.1
	c2.8,1,2.1-3.9,5-3C115.3,142.1,115.4,143,115.6,143.8z"/>
<path class="st1" d="M152.1,92.7c-2.4-0.3-1.7,3.3-4,3.2c-1.5-3.1-1.5-3.1,1.8-6.3c2.2-0.7,3.9,0.4,5.7,1c1.1,1.7,2.1,3.3,0.7,5.1
	C154,95.9,154.5,92.3,152.1,92.7z"/>
<path class="st1" d="M133,85.3c-4.8,3.3-9.4,4.4-14.9,6.2C120.9,86.6,127.1,84.1,133,85.3z"/>
<path class="st1" d="M98.9,102.5c3.2-3.2,6.4-6.5,11.2-7.5c-2.9,4.1-5.4,8.6-11.2,9C98.8,103.5,98.9,103,98.9,102.5z"/>
<path class="st1" d="M66.5,95.1c-3-1-5.2-2.4-3.6-6c2.5-0.4,2.4,2.5,4.2,2.6c2.2,0.6,2.5-2.6,4.8-2.4c1.1,3-0.1,4.8-2.9,5.8
	C68.2,95.1,67.4,95.1,66.5,95.1z"/>
<path class="st1" d="M41.5,158.3c-0.3-0.1-0.5-0.2-0.8-0.3c-1.4-4-3.9-8-0.9-12.3c0.9,0,1.7,0,2.6,0c-0.9,3.7-0.5,7.2,1,10.6
	c-0.1,0.6-0.2,1.2-0.4,1.8C42.6,158.1,42,158.2,41.5,158.3z"/>
<path class="st1" d="M151.2,83.9c-3-1.3-6.5,1.8-10.1-1.2c4.2-2.4,8-2.5,11.8-1.8c1.1,1.5,0.6,2.3-0.6,3
	C152,83.9,151.6,83.9,151.2,83.9z"/>
<path class="st1" d="M42.4,145.6c-0.9,0-1.7,0-2.6,0c0.1-1.5,0.6-2.8,2-3.5c0.4,0.8,0.8,1.7,1.2,2.5C42.8,145,42.6,145.3,42.4,145.6
	z"/>
<path class="st7" d="M106.1,72.3c1.1,1-0.1,2.2,0.3,3.3c-1,0-2,0-2.9,0C104,74.2,103.6,72.2,106.1,72.3z"/>
<path class="st5" d="M29.5,153.1c-0.5,0.5-1,1-1.5,1.5c-0.3-0.2-0.6-0.5-0.9-0.7c0.5-0.5,1-1.1,1.6-1.6
	C29,152.6,29.3,152.8,29.5,153.1z"/>
<g>
	<path class="st1" d="M55.5,80.3c-4.1,10.8-9.8,20.7-16.8,30c-4.3-2.6-5.1-7.2-8.1-9.8c-0.3-1.3-0.7-2.6-1.8-3.4
		c-2-3.8-4.1-7.6-5.9-11.5c-6.4-14.4-2.8-23.3,11.8-29.6c1.5-2,1.2-5.1,4.2-6.5c2,2.2,0.1,4-0.2,6.2c5.4,1.1,10.1,2.9,13.7,7.1
		c3.5,4.2,4.5,8.9,4.4,14.2c0,0-0.2-0.2-0.2-0.2l-0.3,0.1C55.2,77.8,55.3,79,55.5,80.3z M53.4,72.4c-1.5-6.3-4.7-10.9-11.6-12.2
		c-10.5-3.9-23.4,8-17.5,20.9c0.2,0.4,0.4,0.9,0.6,1.3c2.9,6.3,6.2,12.4,10.2,18.1c0.7,1.7,1.3,3.4,3.8,4.3
		c5.8-10.1,13.2-19.3,14.6-31.4c0.1-0.1,0.3-0.3,0.3-0.3C53.7,72.8,53.5,72.6,53.4,72.4z"/>
	<path class="st1" d="M55,80.9c-0.1-1.4-0.2-2.8-0.3-4.1c0.7-0.7,1.3-1.3,2-2C56.8,77,56.9,79.2,55,80.9z"/>
</g>
<path class="st5" d="M66.5,95.1c0.8,0,1.7-0.1,2.5-0.1C68.2,96,67.4,96,66.5,95.1z"/>
<path class="st1" d="M115.6,143.8c-0.2-0.8-0.3-1.7-0.5-2.5C116.5,141.9,116.2,142.8,115.6,143.8z"/>
<path class="st5" d="M105.2,143.3c0.2,0.5,0.4,0.9,0.5,1.4C105.6,144.2,105.4,143.7,105.2,143.3z"/>
<path class="st11" d="M94.8,135.6c0.4-0.1,0.7-0.1,1.1,0C95.6,136.2,95.2,136.2,94.8,135.6z"/>
<path class="st11" d="M75.7,70.4c0.4,0,0.7,0,1.1,0C76.4,70.8,76.1,70.9,75.7,70.4z"/>
<path class="st5" d="M98.9,102.5c0,0.5,0,1-0.1,1.5C98.2,103.5,98.3,103,98.9,102.5z"/>
<path class="st5" d="M92.7,103.7c-0.5-0.3-0.9-0.5-1.4-0.8C91.8,103.2,92.3,103.4,92.7,103.7z"/>
<path class="st5" d="M89.5,102.3c-0.5-0.2-0.9-0.4-1.4-0.6C88.5,101.9,89,102.1,89.5,102.3z"/>
<path class="st11" d="M151.2,83.9c0.4,0,0.7,0,1.1-0.1C152,84.3,151.6,84.4,151.2,83.9z"/>
<path class="st6" d="M149.9,153.3c0.1-1.7,0.1-3.4,2.5-3.3C152.3,151.7,152.4,153.5,149.9,153.3z"/>
<path class="st5" d="M124.1,168.1c-0.4-0.2-0.9-0.3-1.3-0.5C123.3,167.8,123.7,167.9,124.1,168.1z"/>
<path class="st5" d="M169.4,145.6c0.2,0.4,0.3,0.8,0.5,1.3C169.7,146.4,169.5,146,169.4,145.6z"/>
<path class="st8" d="M35.1,100.5c-4-5.7-7.3-11.8-10.2-18.1c-0.2-0.4-0.4-0.9-0.6-1.3c-5.9-12.9,7-24.8,17.5-20.9
	c0.1,1.9,1.5,3,2.7,4.1c4.7,3.9,4.9,9.1,3.6,14.3c-1.5,5.8-4.4,11.1-7.7,16.1C38.9,96.8,38.8,100.3,35.1,100.5z M38.4,66.3l0,0.4
	c-0.4-0.2-0.7-0.2-1,0.1c-4,0.3-5.8,3-6.3,6.4c-0.5,3.9,1.7,6.6,5.1,8.2c1.5,1.4,3,1.4,4.5,0c4-1.8,6.1-4.7,5.2-9.3
	c-0.1-0.4-0.3-0.7-0.4-1.1c-0.6-1.7-1.6-3-3.4-3.6c-0.4-0.2-0.8-0.4-1.3-0.6c-0.4-0.2-0.8-0.4-1.2-0.6
	C39.2,65.8,38.8,65.8,38.4,66.3z"/>
<path class="st9" d="M35.1,100.5c3.7-0.2,3.8-3.7,5.3-5.9c3.3-5,6.2-10.3,7.7-16.1c1.3-5.2,1.1-10.4-3.6-14.3
	c-1.3-1.1-2.6-2.2-2.7-4.1c6.8,1.3,10,5.9,11.5,12.2c-0.2,0.4-0.1,0.7,0.1,1c-1.4,12.1-8.8,21.4-14.6,31.4
	C36.4,103.9,35.8,102.2,35.1,100.5z"/>
<path class="st1" d="M53.5,73.4c-0.2-0.3-0.3-0.7-0.1-1c0.1,0.2,0.3,0.5,0.4,0.7C53.8,73.1,53.6,73.3,53.5,73.4z"/>
<path class="st5" d="M24.3,81.1c0.2,0.4,0.4,0.9,0.6,1.3C24.7,82,24.5,81.5,24.3,81.1z"/>
<path class="st12" d="M92.8,79c-2.7-3.2-4.4-7-6.1-10.7c-1.7-3.7-1.6-7.4,1.3-10.5c2.8-3.1,6.2-4.1,10.1-2c-0.4,1-0.7,2-1.1,3
	c-0.7,0.1-1.5,0.1-2.2,0.2c-3.6,0.6-5.2,2.9-4.6,6.3c0.6,3.8,3.6,4.3,6.8,4.1C97.2,73.3,95.7,76.5,92.8,79z"/>
<path class="st13" d="M92.8,79c2.9-2.5,4.4-5.7,4.3-9.6c4.6-4.1,4.7-5.8,0.3-9.8c-0.1-0.3-0.2-0.6-0.3-0.8c0.4-1,0.7-2,1.1-3
	c5.4,2.3,7.4,5.9,5.7,10.8c-1.9,5.7-5,10.7-8.5,15.5C93.5,81.5,93.1,80.3,92.8,79z"/>
<path class="st8" d="M151.2,55.4c-1.7-5.4-2-10.7,1.6-15.5c3.8-5,8.8-7.4,15.2-5.7c0.1,1.6,1.6,1.9,2.4,2.8c3,3.6,6.4,7.1,5.3,12.4
	c-2.1,9.8-7,18.3-13.2,26.1c-4.3-5.5-7.1-11.9-10.4-17.9C151.9,56.9,151.6,56.2,151.2,55.4z M168.1,55.7c3.7-1.9,5.6-4.8,4.7-9.1
	c-0.6-3.1-2.6-5.1-5.5-5.6c-3.8-0.7-7,0.3-8.6,4.4c-0.9,1-0.9,2.1-0.5,3.3c0.1,5.8,3.9,7.1,8.8,7.2
	C167.5,56.3,167.8,56.2,168.1,55.7z"/>
<path class="st9" d="M162.7,75.6c6.2-7.8,11.1-16.3,13.2-26.1c1.1-5.3-2.3-8.8-5.3-12.4c-0.8-1-2.4-1.2-2.4-2.8
	c1.3,0.2,2.6,0.3,3.9,0.5c4.6,3.1,7.9,7.1,8.5,12.9c-0.9,0.7-0.8,1.4,0,2.1c-0.1,0.8-0.3,1.5-0.4,2.3c-0.1,0.4-0.3,0.8-0.4,1.1
	c-0.1,0.4-0.2,0.8-0.3,1.2c-1.3,3.5-1.2,1.9-1.1,3.1c-3.6,7.5-7.8,14.6-12.4,21.4C163.9,78.3,163.1,77.1,162.7,75.6z"/>
<path class="st1" d="M151.2,55.4c0.3,0.8,0.7,1.5,1,2.3c-0.7,0-1.5,0-2.2,0C150.1,56.8,150.3,55.9,151.2,55.4z"/>
<path class="st1" d="M178.2,57.5c0-1.2,1.7-4.6,1.1-3.1C179.4,55.5,180.5,57.3,178.2,57.5z"/>
<path class="st9" d="M180.4,49.7c-0.8-0.7-0.8-1.4,0-2.1C180.4,48.3,180.4,49,180.4,49.7z"/>
<path class="st5" d="M179.6,53.1c0.1-0.4,0.3-0.8,0.4-1.1C179.9,52.3,179.8,52.7,179.6,53.1z"/>
<path class="st10" d="M185.1,123.9c1.3,0.6,2.6,1.2,3.9,1.8c1.2,4.3-1.4,6.1-4.8,7.6c-3.9-2.4-4.7-5.6-2.8-9.5
	C182.7,123.9,183.9,123.9,185.1,123.9z"/>
<path class="st5" d="M185.1,123.9c-1.2,0-2.4-0.1-3.6-0.1c1-1.1,2.3-0.8,3.5-0.8C185,123.3,185.1,123.6,185.1,123.9z"/>
<path class="st1" d="M90.4,123.2c-2.2,3.8-5.5,5-9.5,3.4c-3.2-1.3-4.8-4.1-4.5-7.6c0.3-3.5,2.2-5.9,5.8-6.5c3.8-0.6,7.1,0.2,8.4,4.5
	C90.6,119,90.5,121.1,90.4,123.2z M88.4,118.3c-2-3.1-4.4-4.1-7.6-2c-1.6,3.1-1.8,6.2,1.8,7.3C86.3,124.9,88,122.2,88.4,118.3z"/>
<path class="st2" d="M90.4,123.2c0.1-2.1,0.2-4.2,0.3-6.3C92,119,92.2,121.1,90.4,123.2z"/>
<path class="st5" d="M70.4,127.6c-0.3-0.2-0.5-0.5-0.4-0.9C70.5,126.8,70.7,127.1,70.4,127.6z"/>
<path class="st5" d="M86.6,104.6c0.6-0.4,1-0.1,1.3,0.5C87.5,104.9,87,104.8,86.6,104.6z"/>
<path class="st12" d="M133,138.9c-2.5-3.1-4-6.7-5.4-10.3c-3.1-7.8,1.6-13.5,10.2-12.5c0.3,1.3,0.7,2.6,1,3.9
	c-4.1-1-7.5-0.1-7.7,4.6c-0.2,5.3,3.6,5.8,7.8,5.3C138.1,133.8,136.7,137.2,133,138.9z"/>
<path class="st13" d="M138.7,120.1c-0.3-1.3-0.7-2.6-1-3.9c3.9-0.1,5.6,2.6,7,5.7c-0.3,0.9-0.1,1.8,0.6,2.5
	c-1.4,6.9-4.9,12.8-8.9,18.6c-2.1-0.6-2.8-2.2-3.4-4c3.8-1.8,5.1-5.2,5.9-8.9C142.2,126.7,142.2,123.4,138.7,120.1z"/>
<path class="st14" d="M145.3,124.3c-0.7-0.7-0.9-1.5-0.6-2.5C145.5,122.6,145.6,123.4,145.3,124.3z"/>
<path class="st5" d="M98.7,121.7c-0.1,0.4-0.3,0.8-0.4,1.3C98.5,122.5,98.6,122.1,98.7,121.7z"/>
<path class="st12" d="M42.4,145.6c0.2-0.3,0.4-0.6,0.6-0.9c3.3-2.7,6.8-5.1,11.3-2.7c-0.1,1.4-0.1,2.7-0.2,4.1
	c-1.4-0.4-2.8-0.9-4.2,0c-3.2,1-4.7,3.1-3.6,6.3c1.3,3.7,4.4,4,7.7,3.1c-1.1,3.6-1.1,8.1-6.6,8.2c-1.1-1.8-2.2-3.6-3.3-5.5
	c-0.3-0.6-0.6-1.3-0.9-1.9C41.9,152.8,41.5,149.3,42.4,145.6z"/>
<path class="st13" d="M54.2,146.1c0.1-1.4,0.1-2.7,0.2-4.1c5.7,1.5,6.7,6.1,5.6,10.6c-1.3,5.6-4.6,10.6-8.2,15.2
	c-0.3,0.4-1.3,0.2-2,0.3c-0.7-1.5-1.4-3-2.1-4.5c5.4-0.1,5.4-4.6,6.6-8.2c1.7-1.9,3.5-3.8,1.4-6.5C55.1,147.9,54.7,147,54.2,146.1z"
	/>
<path class="st1" d="M47.6,163.6c0.7,1.5,1.4,3,2.1,4.5c0,1-0.2,1.9-1.3,2.3c-3.3-3.5-5.6-7.5-7-12.1c0.5-0.1,1-0.2,1.5-0.3
	c0.4,0,0.9,0.1,1.3,0.1C45.5,159.9,46.6,161.8,47.6,163.6z"/>
<path class="st2" d="M44.4,158.1c-0.4,0-0.9-0.1-1.3-0.1c0.1-0.6,0.2-1.2,0.4-1.8C43.7,156.9,44.1,157.5,44.4,158.1z"/>
<path class="st1" d="M45.9,72.3c1,4.6-1.2,7.4-5.2,9.3c-1.5,0-3,0-4.5,0c-3.5-1.6-5.6-4.3-5.1-8.2c0.5-3.5,2.3-6.1,6.3-6.4
	c0.4,0.6,0.7,0.5,1-0.1c0,0,0-0.4,0-0.4c0.4,0,0.8,0,1.2,0.1c0.4,0.2,0.8,0.4,1.2,0.6c0.4,0.2,0.8,0.4,1.3,0.6
	c1.8,0.6,2.8,1.9,3.4,3.6C45.6,71.5,45.8,71.9,45.9,72.3z M38.6,69.7c-2.5,0.1-4.2,1.4-4.4,4c-0.2,2.9,1.6,4.7,4.4,4.7
	c2.5,0,4.2-1.6,4.3-4.3C42.9,71.5,41.4,70,38.6,69.7z"/>
<path class="st15" d="M36.2,81.5c1.5,0,3,0,4.5,0C39.2,82.8,37.7,82.9,36.2,81.5z"/>
<path class="st2" d="M42.1,67.6c-0.4-0.2-0.8-0.4-1.3-0.6C41.2,67.2,41.7,67.4,42.1,67.6z"/>
<path class="st5" d="M45.9,72.3c-0.1-0.4-0.3-0.7-0.4-1.1C45.6,71.5,45.8,71.9,45.9,72.3z"/>
<path class="st2" d="M38.4,66.7c-0.3,0.6-0.6,0.7-1,0.1C37.7,66.5,38.1,66.5,38.4,66.7z"/>
<path class="st15" d="M39.6,66.4c-0.4,0-0.8,0-1.2-0.1C38.8,65.8,39.2,65.8,39.6,66.4z"/>
<path class="st1" d="M97.3,59.6c4.4,3.9,4.4,5.6-0.3,9.8c-3.2,0.2-6.2-0.3-6.8-4.1c-0.6-3.5,1-5.7,4.6-6.3
	C95.6,59.7,96.4,59.8,97.3,59.6z M94.2,62.4c-0.8,1.5-1.5,2.8,0.6,3.6c1,0.3,1.9-0.2,2.1-1.2C97.4,63.1,96.5,62.4,94.2,62.4z"/>
<path class="st1" d="M97.3,59.6c-0.9,0.2-1.8,0.1-2.5-0.6c0.7-0.1,1.5-0.1,2.2-0.2C97.2,59,97.3,59.3,97.3,59.6z"/>
<path class="st1" d="M167,55.9c-4.8-0.1-8.6-1.4-8.8-7.2c1,0.4,2,0.8,3,1.1c1.9,3,4.3,4.3,7.2,1.6c2.1-1.9,1.8-4.5-0.3-6.4
	c-2.2-2-4.4-1.1-6.5,0.4c-1,0-2-0.1-3-0.1c1.5-4.1,4.8-5.1,8.6-4.4c2.9,0.5,4.9,2.5,5.5,5.6c0.9,4.3-1.1,7.2-4.7,9.1
	C167.7,55.8,167.4,55.8,167,55.9z"/>
<path class="st1" d="M161.3,49.8c-1-0.4-2-0.8-3-1.1c-0.4-1.2-0.4-2.3,0.5-3.3c1,0,2,0.1,3,0.1C161.6,46.9,161.4,48.3,161.3,49.8z"
	/>
<path class="st15" d="M167,55.9c0.4-0.1,0.7-0.1,1.1-0.2C167.8,56.2,167.5,56.3,167,55.9z"/>
<path class="st10" d="M88.4,118.3c-0.4,3.9-2.1,6.6-5.7,5.4c-3.6-1.2-3.5-4.3-1.8-7.3C84.1,114.2,86.4,115.2,88.4,118.3z"/>
<path class="st1" d="M138.7,120.1c3.5,3.3,3.5,6.6,0.1,9.9c-4.2,0.5-8,0-7.8-5.3C131.2,120,134.6,119.1,138.7,120.1z M135.7,122.8
	c-2.2,2.2-1.8,3.4,0.6,4.5C138.4,125.7,138.6,124.3,135.7,122.8z"/>
<path class="st1" d="M55.6,148.9c2.2,2.7,0.3,4.6-1.4,6.5c-3.4,0.9-6.4,0.6-7.7-3.1c-1.1-3.2,0.4-5.3,3.6-6.3c-0.1,1-0.1,2-0.2,3
	c-0.4,1.8-0.4,3.4,2.2,3.3c1.5-0.8,1.2-2.1,1-3.4C53.9,148.9,54.7,148.9,55.6,148.9z"/>
<path class="st1" d="M49.8,149.1c0.1-1,0.1-2,0.2-3c1.4-0.9,2.8-0.3,4.2,0c0.5,0.9,0.9,1.9,1.4,2.8c-0.9,0-1.7,0.1-2.6,0.1
	C51.9,149,50.9,149,49.8,149.1z"/>
<path class="st6" d="M135.7,122.8c2.8,1.5,2.7,2.8,0.6,4.5C133.9,126.2,133.6,125,135.7,122.8z"/>
<path class="st6" d="M49.8,149.1c1.1,0,2.1,0,3.2-0.1c0.2,1.3,0.5,2.6-1,3.4C49.5,152.4,49.4,150.9,49.8,149.1z"/>
</svg>
